<svg id="Raggruppa_70" data-name="Raggruppa 70" xmlns="http://www.w3.org/2000/svg" xmlns:xlink="http://www.w3.org/1999/xlink" width="97.782" height="95.085" viewBox="0 0 97.782 95.085">
  <defs>
    <clipPath id="clip-path">
      <rect id="Rettangolo_31" data-name="Rettangolo 31" width="97.782" height="95.085" fill="none"/>
    </clipPath>
  </defs>
  <g id="Raggruppa_69" data-name="Raggruppa 69" clip-path="url(#clip-path)">
    <path id="Tracciato_917" data-name="Tracciato 917" d="M100.971.9a.606.606,0,0,1,.6-.612.612.612,0,1,1,0,1.224.606.606,0,0,1-.6-.612m8.755,52.368a.49.49,0,0,1,.523-.514.508.508,0,0,1,.479.576.5.5,0,1,1-1-.062m1.978,1.4a3.189,3.189,0,0,1-.692-.355,1.014,1.014,0,0,0,.559-.922,1.234,1.234,0,0,0-1.277-1.339,1.2,1.2,0,0,0-1.41,1.126A1.217,1.217,0,0,0,109.7,54.5a5.8,5.8,0,0,0,.6.071c.142.106.373.231.559.381Zm3.051.825.807.275.275-.816.337.115c.727.248,1.091-.071,1.206-.426.133-.364.009-.8-.656-1.029l-1.18-.408Zm1.233-.967.213-.621.2.071c.257.089.319.222.248.426s-.213.275-.461.2Zm-12.427.31.842-.106-.106-.852.355-.044c.754-.089.94-.541.9-.913s-.346-.718-1.047-.639l-1.233.16Zm.683-1.4-.08-.656.2-.027c.266-.027.381.071.408.275s-.062.346-.328.381Zm-5.552,2.581a2.082,2.082,0,0,0,.852-.115c.594-.213.7-.639.585-.967-.222-.647-1.109-.381-1.206-.656-.035-.1.036-.186.169-.231a.937.937,0,0,1,.674.1l-.213-.6a1.2,1.2,0,0,0-.807.009.747.747,0,0,0-.568.958c.231.674,1.091.417,1.18.665.027.089-.027.178-.177.231a1.178,1.178,0,0,1-.7-.009ZM97.671,71.5c-.355-.532-.514-.621-.736-1.011a4.737,4.737,0,0,0,.656,1.082,11.665,11.665,0,0,0,.94,1.118,5.6,5.6,0,0,1-2.138-1.676,5.754,5.754,0,0,1-.807-2.8c.923.771,1.49.621,2.129,1.6a15.259,15.259,0,0,1,.958,2.67,2.661,2.661,0,0,0,.656.816,2.465,2.465,0,0,0,.318.235,32.391,32.391,0,0,0,3.477.587c-.185-.084-.477-.22-.8-.388-.594-.31-.869-.426-1.1-.559-.47-.284-.621-.3-.931-.523a4.123,4.123,0,0,0,.9.6,9.707,9.707,0,0,0,1.135.523,4.548,4.548,0,0,1-2.226-.523,5.257,5.257,0,0,1-1.712-1.88c.976.266,1.339-.071,2.191.461.7.417,1.029,1.073,1.765,1.729a8.432,8.432,0,0,0,1.008.584c.494.055.99.1,1.485.136a4.255,4.255,0,0,1-.879-.587c-.559-.488-.825-.692-1.029-.9-.426-.435-.594-.488-.869-.816a4.4,4.4,0,0,0,.807.887,11.915,11.915,0,0,0,1.082.878,4.415,4.415,0,0,1-3.557-3.637c.984.559,1.49.319,2.262,1.109a14.543,14.543,0,0,1,1.384,2.306,2.609,2.609,0,0,0,.763.639,1.967,1.967,0,0,0,.254.132l.145.01a11.028,11.028,0,0,1,1.679.216c.242.05.483.107.723.173q.327-.086.656-.153a11.016,11.016,0,0,1,1.652-.21q.387-.025.774-.058a2.05,2.05,0,0,0,.539-.385,2.639,2.639,0,0,1-.257-.559c-.151-.515-.08-.878.177-.86.239.009.257.2.337.151.107-.053.036-.062,0-.461-.009-.186.115-.417.293-.346.213.071.2.23.364.168.249-.1-.177-.718.355-.807.2-.035.222.151.381.115.373-.08.444-.852.852-.594.337.213-.168.576.053.745.1.071.2-.036.32.177.239.443-.577.319-.5.6.036.124.168.044.284.2.16.213-.018.532-.7.639-.248.036-.31.1-.31.178.018.133.142.115.231.248.186.284-.284.851-1.676.488a10.244,10.244,0,0,0,1.641-2.191,13.541,13.541,0,0,1-2.139,2.475c.753-.068,1.5-.157,2.246-.269a7.137,7.137,0,0,0,.948-.512,1.362,1.362,0,0,1-.08-.408c-.009-.4.124-.647.3-.585s.142.186.213.169.036-.036.089-.328c.027-.133.168-.275.284-.2.142.089.089.2.222.186.2-.027.018-.55.426-.514.151.009.124.142.249.151.275.009.488-.523.727-.266.2.213-.239.381-.107.541.053.062.142.009.186.186.089.364-.479.124-.47.346,0,.089.106.062.16.186.071.177-.124.381-.639.328-.178-.018-.24.018-.248.071-.017.1.069.106.1.2q.6-.149,1.192-.319l.011-.035s.293-.062.665-.6a2.986,2.986,0,0,1-.391-.505c-.257-.488-.266-.86-.009-.9.239-.035.3.142.373.08.089-.071.018-.071-.106-.452-.053-.186.027-.444.222-.417.222.036.239.2.39.107.231-.151-.337-.683.177-.887.2-.071.257.107.408.044.355-.151.257-.94.718-.763.381.142-.044.6.222.728.106.053.186-.071.355.115.346.39-.505.435-.355.7.062.115.177.018.319.142.213.177.1.541-.559.772-.231.089-.284.168-.266.239.044.133.168.089.284.2.248.248-.1.9-1.561.825A10.049,10.049,0,0,0,118.79,70.1a12.856,12.856,0,0,1-1.7,3.02q1.2-.358,2.325-.8a6.515,6.515,0,0,0,.879-.84,1.3,1.3,0,0,1-.2-.381c-.124-.39-.071-.665.115-.656s.2.142.266.115c.08-.044.018-.053-.009-.346-.009-.142.08-.319.222-.275.16.053.151.177.275.124.186-.071-.151-.541.257-.612.151-.036.168.106.293.08.275-.062.32-.647.639-.461.248.16-.124.443.044.568.071.044.151-.027.239.133.2.328-.426.24-.364.461.035.089.133.027.222.142.124.16-.009.408-.523.488-.186.036-.239.089-.231.142.009.106.106.089.177.186a.178.178,0,0,1,.03.1q.6-.3,1.172-.617a1.67,1.67,0,0,0,.315-.685,3.016,3.016,0,0,1-.532-.364c-.417-.373-.55-.727-.319-.843.213-.107.328.044.381-.036.062-.1-.009-.071-.257-.4-.115-.159-.133-.417.062-.452.231-.044.3.106.408-.027.177-.213-.55-.55-.133-.9.16-.133.275.027.4-.08.284-.257-.08-.967.417-.949.408.018.168.594.461.621.124.018.151-.124.372.009.461.257-.328.559-.1.772.1.08.177-.053.355.027.257.1.284.479-.257.9-.2.16-.222.248-.177.31.089.115.2.027.346.107.311.16.213.887-1.2,1.26a9.878,9.878,0,0,0,.222-2.732,12.463,12.463,0,0,1-.549,3.33,24.287,24.287,0,0,0,2.163-1.39,6.408,6.408,0,0,0,.435-.91,1.463,1.463,0,0,1-.328-.3c-.257-.328-.31-.594-.124-.657s.24.071.293.027c.053-.071,0-.053-.133-.328-.071-.124-.044-.319.107-.328.168,0,.2.115.3.036.151-.133-.328-.47.018-.665.142-.08.2.044.3-.018.248-.151.08-.718.435-.639.3.062.044.452.257.514.08.018.124-.071.266.044.3.248-.31.373-.168.55.062.08.133-.009.257.062.168.115.133.39-.32.639-.159.089-.195.151-.168.2.053.089.133.044.239.115a.225.225,0,0,1,.046.283q.526-.468,1.007-.96l-.059-.131a1.322,1.322,0,0,0,.08-.914,3.253,3.253,0,0,1-.665-.151c-.568-.213-.843-.505-.665-.7s.337-.089.355-.177c.018-.124-.036-.071-.408-.3-.178-.106-.3-.355-.133-.461.2-.124.337-.009.39-.177.08-.275-.763-.328-.505-.816.106-.2.284-.08.355-.231.168-.355-.47-.914.018-1.082.408-.133.408.515.7.435.124-.027.1-.178.364-.133.559.08-.08.665.231.781.133.053.151-.107.355-.1.293,0,.47.364.124.984-.124.213-.107.319-.044.355.142.08.2-.035.373-.018.381.036.585.781-.639,1.677a10.331,10.331,0,0,0-.914-2.75c-.26-.588,1.141,2.657.793,3.8a17.554,17.554,0,0,0,1.6-1.921,6.835,6.835,0,0,0,.069-1.127,1.937,1.937,0,0,1-.444-.177c-.39-.231-.55-.488-.39-.612s.266-.018.293-.089-.018-.044-.257-.266c-.115-.107-.168-.31-.027-.373.168-.062.248.044.319-.08.1-.186-.523-.337-.248-.674.1-.124.213-.018.293-.124.177-.239-.213-.736.177-.8.319-.044.222.443.461.426.089-.009.1-.124.284-.053.408.133-.159.488.053.612.089.053.133-.062.284-.027.213.044.293.337-.062.745-.124.151-.133.222-.089.266.089.08.16,0,.284.035.275.08.31.657-.728,1.153a6.894,6.894,0,0,0-.266-2.164,21.668,21.668,0,0,1,.151,3.1,14.667,14.667,0,0,0,1.74-3.335l-.01-.009s.053-.275-.319-.816a3.15,3.15,0,0,1-.648.133c-.585.044-.958-.1-.887-.337.071-.222.275-.2.249-.293-.036-.107-.062-.036-.488-.089-.2-.027-.417-.186-.31-.346.124-.186.293-.142.266-.31-.044-.257-.807.027-.781-.5.009-.2.213-.178.213-.337,0-.364-.807-.585-.434-.922.293-.275.568.275.807.1.089-.08.009-.2.257-.266.532-.142.2.612.532.586.133-.009.089-.151.275-.231.257-.106.568.133.514.8-.018.231.036.31.115.32.151.018.16-.115.319-.169.355-.115.842.444.142,1.685a10.372,10.372,0,0,0-1.96-1.987c-.459-.38,1.83,1.572,2.239,2.733a13.018,13.018,0,0,0,.584-2.479,6.52,6.52,0,0,0-.507-.937,1.489,1.489,0,0,1-.452.071c-.434,0-.692-.133-.621-.3s.213-.142.2-.2c-.009-.089-.036-.035-.346-.1-.151-.027-.293-.168-.2-.275.106-.133.231-.089.222-.213-.018-.2-.594-.027-.541-.417.018-.151.169-.124.177-.24.035-.275-.541-.488-.248-.718.239-.186.4.24.585.115.071-.044.018-.142.213-.177.39-.08.106.461.346.47.1,0,.071-.115.213-.159.2-.071.408.124.319.621-.027.178.009.239.062.249.115.018.124-.071.248-.107.266-.062.585.381-.018,1.268a6.438,6.438,0,0,0-1.3-1.6,20.183,20.183,0,0,1,1.681,2.42,12.747,12.747,0,0,0,.084-1.462,13.615,13.615,0,0,0-.128-1.81l-.05-.017s-.027-.231-.505-.559a3.119,3.119,0,0,1-.505.284c-.479.186-.834.168-.843-.036s.168-.231.115-.293-.062-.018-.435.062c-.177.036-.408-.035-.364-.2.053-.177.213-.186.133-.31-.106-.186-.665.239-.8-.178-.053-.16.124-.2.08-.319-.107-.293-.852-.257-.647-.612.177-.293.568.071.71-.133.062-.089-.044-.16.142-.275.4-.257.355.417.621.31.115-.044.027-.142.16-.249.186-.16.514-.053.674.488.053.186.124.23.2.222.124-.035.1-.133.213-.222.257-.178.843.124.612,1.286a9.6,9.6,0,0,0-2.235-1.038,10.963,10.963,0,0,1,2.689,1.539,12.173,12.173,0,0,0-.488-1.835l-.01,0a7.874,7.874,0,0,0-.585-1.242,1.827,1.827,0,0,1-.505.071c-.488-.018-.772-.168-.683-.373s.248-.159.239-.23c-.018-.1-.044-.044-.39-.124-.16-.035-.319-.2-.213-.328.124-.151.257-.1.257-.248-.009-.222-.665-.044-.586-.5.036-.177.2-.142.213-.275.053-.319-.576-.586-.248-.843.284-.213.443.293.647.151.089-.053.035-.16.248-.2.444-.08.1.55.364.559.115,0,.089-.124.249-.177.222-.071.452.16.328.736-.044.2-.009.284.062.293.115.027.142-.08.275-.115.3-.071.639.461-.089,1.472a7.337,7.337,0,0,0-1.357-1.9,24.982,24.982,0,0,1,1.889,3.238c.147.374.264.691.359.974a11.014,11.014,0,0,1,1.38-2.508A8.232,8.232,0,0,0,132.37,53.2c-.639-.967-.337-1.481-.071-1.41.124.027.142.133.248.106.062-.018.089-.089.053-.284-.1-.55.1-.772.3-.71.142.053.115.169.222.169.239-.009-.071-.612.328-.532.186.035.142.133.213.186.2.133.337-.355.585-.151.293.239-.266.505-.231.807.018.133.168.1.2.266.071.434-.515.266-.523.488,0,.142.115.089.222.231.1.124-.044.275-.186.319-.31.08-.337.027-.346.115-.009.071.133.044.2.222.08.2-.177.346-.6.364a1.808,1.808,0,0,1-.5-.053,2.394,2.394,0,0,0-.19.761,8.9,8.9,0,0,1,.359,2.752c0,.01,0,.02,0,.03a13.2,13.2,0,0,1,2.484-2.265,10.1,10.1,0,0,0-2.067,1.579c-.372-1.233.16-1.676.435-1.526.133.071.115.186.248.186.071.009.133-.062.16-.275.08-.621.39-.8.594-.665.142.1.08.213.186.239.284.062.142-.665.576-.461.2.1.107.186.168.266.169.2.505-.275.718.018.248.355-.488.461-.55.8-.027.142.151.142.115.337-.071.479-.683.124-.763.355-.062.151.1.124.169.31.062.16-.151.284-.328.284-.381-.009-.39-.071-.434.018s.133.089.151.3c.018.23-.328.31-.825.2a2.438,2.438,0,0,1-.541-.213,2.68,2.68,0,0,0-.5.777,13.267,13.267,0,0,1-.5,3.361c.69-.954,3.677-2.4,3.1-2.133a11.73,11.73,0,0,0-2.537,1.446c-.275-1.357.381-1.774.674-1.579.142.089.107.213.257.239.08.009.159-.053.213-.284.168-.647.541-.807.763-.639.151.115.053.24.186.284.3.1.231-.7.7-.434.213.124.1.222.168.31.16.231.6-.239.807.1.239.408-.6.434-.718.781-.053.151.151.177.1.373-.142.505-.789.053-.914.293-.08.151.1.151.16.355.053.177-.213.284-.417.257-.426-.053-.435-.124-.5-.027-.053.08.142.107.142.337-.009.248-.408.293-.958.115a2.569,2.569,0,0,1-.585-.275,2.71,2.71,0,0,0-.745.9l-.006-.065a14.466,14.466,0,0,1-1.191,2.75c1.1-.75,4.583-1.241,3.9-1.16a12.772,12.772,0,0,0-3.1.647c.213-1.517,1.038-1.73,1.268-1.428.106.142.027.257.168.337.08.035.186,0,.328-.222.408-.63.842-.665,1-.417.115.178-.027.275.089.364.275.213.5-.657.869-.213.177.2.027.257.062.381.08.3.7-.036.781.381.107.514-.771.248-1.02.576-.106.142.1.239-.035.426-.337.488-.825-.213-1.038,0-.142.133.044.186.027.426-.009.2-.31.231-.515.133-.417-.2-.39-.284-.5-.2-.08.062.107.16.018.408s-.523.168-1.02-.2a2.985,2.985,0,0,1-.488-.505,3.254,3.254,0,0,0-.993.613,16.883,16.883,0,0,1-1.724,2.39c1.171-.622,4.67-.7,3.994-.7a12.081,12.081,0,0,0-3.14.284c.408-1.472,1.242-1.588,1.428-1.26.089.151-.009.257.124.346.071.044.177.018.346-.186.488-.568.923-.55,1.047-.284.08.178-.071.266.035.364.249.239.577-.585.887-.115.142.231-.009.266.009.39.035.3.692.036.718.461.035.515-.789.151-1.073.452-.124.124.062.239-.089.408-.39.444-.789-.3-1.029-.115-.151.115.027.186-.018.417-.036.2-.346.2-.523.08-.381-.248-.355-.328-.461-.257-.089.053.08.168-.036.4-.133.239-.532.106-.976-.319a3.218,3.218,0,0,1-.426-.55,3.044,3.044,0,0,0-1.153.568l.006-.015a19.991,19.991,0,0,1-1.785,1.731c1.171-.388,4.749.439,4.086.262a12.415,12.415,0,0,0-3.051-.488c.781-1.3,1.6-1.206,1.694-.852.044.169-.08.248.027.364.053.062.16.062.372-.089.612-.417,1.02-.3,1.065-.027.036.2-.133.239-.062.355.169.293.7-.408.869.115.08.248-.08.239-.1.364-.036.293.656.2.568.612-.106.5-.789-.044-1.144.169-.151.1-.009.248-.2.372-.488.32-.665-.479-.931-.364-.177.071-.035.186-.142.39-.089.186-.373.106-.515-.053-.293-.328-.248-.39-.364-.355-.1.027.036.186-.142.373s-.532-.027-.843-.541a2.813,2.813,0,0,1-.248-.612,3.222,3.222,0,0,0-1.218.233,23.153,23.153,0,0,1-2.517,1.812c1.292-.275,4.579.545,3.939.367a12.409,12.409,0,0,0-3.033-.541c.8-1.277,1.614-1.171,1.7-.816.035.16-.08.239.018.355.053.062.16.071.381-.08.612-.408,1.02-.284,1.064-.009.027.2-.142.239-.071.355.16.293.71-.4.86.124.08.248-.08.248-.1.364-.044.3.647.222.55.63-.115.488-.789-.062-1.144.142-.151.1-.009.248-.2.373-.488.31-.647-.488-.923-.381-.178.071-.036.186-.142.39-.1.186-.381.1-.514-.062-.293-.328-.248-.39-.364-.364-.1.027.027.186-.151.372s-.532-.035-.825-.55a2.739,2.739,0,0,1-.239-.63,3.049,3.049,0,0,0-1.251.239l.012-.016a26.75,26.75,0,0,1-2.555,1.34,21.263,21.263,0,0,1,3.358,1.106,12.188,12.188,0,0,0-2.847-1.126c1.056-1.091,1.836-.834,1.845-.47,0,.177-.133.222-.062.364.035.071.142.089.39-.009.692-.284,1.065-.08,1.038.2-.009.2-.178.2-.142.337.1.31.781-.257.816.284.027.266-.133.222-.177.337-.106.284.586.346.408.718-.222.461-.763-.213-1.153-.08-.168.062-.071.239-.284.319-.55.213-.532-.6-.825-.55-.186.027-.071.168-.222.355-.133.16-.39.018-.488-.168-.213-.381-.151-.426-.275-.417-.106,0-.009.177-.231.328s-.505-.142-.683-.7a2.852,2.852,0,0,1-.1-.657,3.208,3.208,0,0,0-.59-.075,29.591,29.591,0,0,1-3.129,1.192,16.52,16.52,0,0,1,3.675,1.331,11.837,11.837,0,0,0-2.785-1.268c1.118-1.047,1.88-.745,1.872-.373-.009.168-.142.213-.08.346.036.08.133.106.39.018.7-.248,1.065-.027,1.02.257-.018.2-.186.2-.16.32.08.319.8-.213.807.337,0,.257-.151.213-.2.328-.124.275.568.364.364.736-.239.444-.745-.248-1.144-.142-.169.053-.08.239-.293.31-.559.177-.5-.63-.8-.594-.186.018-.08.168-.239.337-.142.16-.39,0-.479-.186-.2-.39-.124-.435-.257-.435-.1,0-.018.186-.239.319s-.506-.168-.647-.736a2.513,2.513,0,0,1-.062-.665,3.3,3.3,0,0,0-1.232-.087q-.73.22-1.482.407-.354.082-.711.156A18.037,18.037,0,0,1,118.027,76a11.435,11.435,0,0,0-2.395-1.756c1.295-.781,1.96-.346,1.872.009-.044.16-.186.178-.151.319.018.08.106.124.372.089.728-.1,1.02.177.923.443-.062.186-.222.151-.222.284.009.319.807-.053.7.47-.053.248-.186.177-.257.275-.186.239.461.461.186.781-.328.373-.665-.39-1.064-.355-.178.009-.133.2-.355.231-.576.071-.346-.7-.63-.719-.186-.018-.115.142-.31.284-.169.115-.373-.08-.417-.275-.1-.417-.027-.452-.151-.47-.1-.018-.053.168-.3.257s-.444-.257-.461-.834a2.809,2.809,0,0,1,.08-.639,3.179,3.179,0,0,0-.692-.253q-1.656.334-3.369.508a14.232,14.232,0,0,1,2.988,1.776,10.534,10.534,0,0,0-2.2-1.57c1.2-.7,1.8-.31,1.721,0-.044.151-.169.16-.142.293.018.071.1.115.337.08.674-.089.94.16.86.4-.062.16-.213.133-.213.248.009.284.745-.044.639.426-.044.222-.168.16-.231.239-.168.222.417.417.168.7-.3.337-.6-.346-.976-.32-.159.018-.115.186-.319.213-.532.062-.319-.63-.585-.647-.168-.018-.106.133-.284.248-.151.106-.337-.062-.381-.239-.089-.373-.027-.4-.133-.417-.089-.018-.053.151-.275.231-.239.08-.408-.231-.426-.745a2.505,2.505,0,0,1,.071-.576,2.687,2.687,0,0,0-1.1-.293l0,0q-.5.043-1,.072a9.687,9.687,0,0,0-1.457.183c2.247.8,4.177,2.292,4.358,4.287l-.825.434c0-1.93-1.609-3.438-3.67-4.256h0q-.35-.139-.716-.25c-.259.078-.514.165-.763.263-2.071.816-3.691,2.327-3.691,4.262l-.816-.435c.183-2.018,2.15-3.516,4.428-4.308a9.719,9.719,0,0,0-1.527-.2q-.7-.041-1.391-.109c-.045.008-.093.018-.143.029a2.772,2.772,0,0,0-.949.39c-.869.674-1.268,1.384-2.093,1.809-1.011.532-1.419.151-2.555.39a5.848,5.848,0,0,1,2.031-1.978,5.588,5.588,0,0,1,2.608-.461,12.13,12.13,0,0,0-1.33.523,4.584,4.584,0,0,0-1.073.612c.364-.231.55-.239,1.1-.523.266-.142.594-.257,1.295-.568a4.147,4.147,0,0,1,.811-.255q-1.258-.135-2.487-.358a2.433,2.433,0,0,0-.692.223,16.255,16.255,0,0,1-2.546,1.641c-1.162.435-1.535-.035-2.8.062a6.471,6.471,0,0,1,2.5-1.836,6.062,6.062,0,0,1,2.874-.124,13,13,0,0,0-1.517.373,5.362,5.362,0,0,0-1.251.505c.435-.2.63-.177,1.277-.408.3-.106.665-.186,1.472-.417.111-.033.227-.06.342-.082q-.65-.125-1.291-.273-.669-.166-1.322-.358a2.851,2.851,0,0,0-.9.261c-1.18.656-1.792,1.428-2.874,1.783-1.3.461-1.712-.071-3.122.018a7.1,7.1,0,0,1,2.82-2,6.748,6.748,0,0,1,3.2-.08,15.164,15.164,0,0,0-1.694.381,5.893,5.893,0,0,0-1.4.541c.488-.2.7-.186,1.428-.435.346-.115.754-.186,1.65-.435a4.243,4.243,0,0,1,.6-.121q-1.18-.36-2.3-.8a2.55,2.55,0,0,0-.861.142c-1.286.5-2.031,1.2-3.167,1.41-1.392.293-1.73-.293-3.166-.408a7.444,7.444,0,0,1,3.158-1.632,6.844,6.844,0,0,1,3.247.346,15.5,15.5,0,0,0-1.765.151,5.993,5.993,0,0,0-1.508.364c.532-.142.745-.089,1.508-.248.373-.071.789-.089,1.738-.222a4.389,4.389,0,0,1,.486-.036,27.9,27.9,0,0,1-2.573-1.208c-.046-.009-.1-.017-.148-.024a3.638,3.638,0,0,0-1.321.035c-1.393.408-2.226,1.073-3.433,1.2-1.473.178-1.765-.461-3.255-.692a7.778,7.778,0,0,1,3.442-1.437,7.173,7.173,0,0,1,3.344.639,15.7,15.7,0,0,0-1.854.009,6.808,6.808,0,0,0-1.6.248c.559-.106.781-.036,1.6-.124.381-.044.825-.027,1.818-.08a5.507,5.507,0,0,1,1.1.064,24.515,24.515,0,0,1-2.929-1.892,3.265,3.265,0,0,0-1.164-.1c-1.428.222-2.351.772-3.566.736-1.49-.018-1.685-.692-3.122-1.118a7.9,7.9,0,0,1,3.619-.967,7.232,7.232,0,0,1,3.22,1.073,16.854,16.854,0,0,0-1.836-.231,6.3,6.3,0,0,0-1.623.036c.568-.036.78.071,1.6.08.39.009.825.08,1.818.16a4.991,4.991,0,0,1,.8.137,20.987,20.987,0,0,1-1.928-1.7c-.058-.04-.126-.084-.2-.127a3.462,3.462,0,0,0-1.18-.408c-1.366-.107-2.342.2-3.441-.107-1.357-.337-1.375-.994-2.59-1.7a7.662,7.662,0,0,1,3.548-.1A6.593,6.593,0,0,1,86,66.621a13.344,13.344,0,0,0-1.632-.612,5.88,5.88,0,0,0-1.481-.319c.523.089.692.231,1.437.426.355.089.736.248,1.623.541a5.113,5.113,0,0,1,.938.424,17.735,17.735,0,0,1-1.971-2.44,3.006,3.006,0,0,0-1.247-.734,18.342,18.342,0,0,1-3.033-.5c-1.153-.461-1.082-1.047-2.058-1.809a6.688,6.688,0,0,1,3.14.328,5.714,5.714,0,0,1,2.156,1.809A12.709,12.709,0,0,0,82.512,63a4.832,4.832,0,0,0-1.268-.452c.452.142.585.284,1.215.541.3.124.621.31,1.366.665a4.644,4.644,0,0,1,.894.589,15.277,15.277,0,0,1-1-1.829l-.054.017a2.262,2.262,0,0,0-.239-.47,3.042,3.042,0,0,0-.771-.834,17.259,17.259,0,0,1-2.794-1.517c-.967-.843-.674-1.393-1.348-2.475a6.711,6.711,0,0,1,2.963,1.393,5.7,5.7,0,0,1,1.446,2.51,12.569,12.569,0,0,0-1.065-1.189,5.217,5.217,0,0,0-1.073-.878c.39.293.461.479.984.94.257.231.5.523,1.091,1.126a4.5,4.5,0,0,1,.606.784,13.537,13.537,0,0,1-.875-3.256,2.525,2.525,0,0,0-.583-.818,16.514,16.514,0,0,1-2.412-1.774c-.79-.923-.444-1.4-.923-2.5a6.347,6.347,0,0,1,2.6,1.676,5.383,5.383,0,0,1,1,2.546,11.4,11.4,0,0,0-.834-1.251,4.972,4.972,0,0,0-.9-.967c.337.328.373.514.807,1.02.2.239.39.55.869,1.2a3.806,3.806,0,0,1,.329.54,13.148,13.148,0,0,1-.081-1.5s0-.087.013-.234L82.45,56.6a2.769,2.769,0,0,0,0-.523A3.3,3.3,0,0,0,82.193,55a16.907,16.907,0,0,1-1.517-2.537c-.408-1.162.027-1.534-.062-2.794a6.566,6.566,0,0,1,1.694,2.5,6.607,6.607,0,0,1,.115,2.856,14.222,14.222,0,0,0-.337-1.508,5.785,5.785,0,0,0-.479-1.251c.186.434.169.63.381,1.268.106.31.177.674.39,1.472a4.98,4.98,0,0,1,.155.98c.023-.212.053-.45.093-.7A7.577,7.577,0,0,1,83,53.937c.053-.124.239-.532.5-.994.337-.6.452-.878.612-1.109.319-.488.31-.639.576-.967a4.01,4.01,0,0,0-.692.94,7.846,7.846,0,0,0-.55,1.153,3.329,3.329,0,0,1,.39-2.2,6.1,6.1,0,0,1,2.306-1.845c-.222.967.275,1.277-.319,2.156-.461.718-1.313,1.108-2.085,1.88a5.411,5.411,0,0,0-.532.994,8.56,8.56,0,0,0-.382,1.339c-.025.127-.044.253-.06.38a4.17,4.17,0,0,1,.752-.867c.568-.47.8-.7,1.029-.869.5-.364.568-.515.931-.736a4.948,4.948,0,0,0-1,.674,11.754,11.754,0,0,0-1,.922,4.788,4.788,0,0,1,1.419-2,6.338,6.338,0,0,1,2.7-.993c-.665.869-.444,1.339-1.339,1.987a16.691,16.691,0,0,1-2.554,1.109,2.952,2.952,0,0,0-.736.647,1.943,1.943,0,0,0-.216.342,7.783,7.783,0,0,0-.023.962,12.8,12.8,0,0,0,.36,2.967c.052-.175.164-.54.323-.945.239-.63.31-.913.426-1.153.231-.506.222-.657.408-1a4.109,4.109,0,0,0-.5.984,9.191,9.191,0,0,0-.381,1.189,4.168,4.168,0,0,1,.2-2.253,5.353,5.353,0,0,1,1.747-1.96c-.124.984.293,1.286-.133,2.2-.337.754-.993,1.171-1.579,2a7.771,7.771,0,0,0-.47,1.073l-.008,0a13.357,13.357,0,0,0,.475,1.5,4.124,4.124,0,0,1,.446-.906c.408-.585.568-.86.745-1.082.364-.47.39-.63.674-.931a4.285,4.285,0,0,0-.763.887,10.355,10.355,0,0,0-.7,1.135,4.758,4.758,0,0,1,.816-2.288,5.71,5.71,0,0,1,2.262-1.579c-.4.994-.08,1.411-.754,2.244a14.362,14.362,0,0,1-2.093,1.659,2.473,2.473,0,0,0-.515.807,1.831,1.831,0,0,0-.068.18,15.348,15.348,0,0,0,2.571,4.25c-.065-.2-.157-.5-.241-.838-.169-.674-.266-.958-.32-1.224-.1-.559-.2-.683-.239-1.082a3.965,3.965,0,0,0,.151,1.118,9.174,9.174,0,0,0,.381,1.224,4.452,4.452,0,0,1-1.171-2.049,5.184,5.184,0,0,1,.346-2.625c.479.922,1.011.958,1.179,1.978a13.229,13.229,0,0,1-.168,2.554,7.376,7.376,0,0,0,.209,1.095q.473.549,1,1.071a4.288,4.288,0,0,1-.091-1.057c.044-.807.036-1.162.071-1.481.089-.656.018-.842.115-1.295a4.469,4.469,0,0,0-.222,1.295,12.105,12.105,0,0,0-.009,1.517,5.3,5.3,0,0,1-.576-2.723,6.047,6.047,0,0,1,1.286-2.8c.213,1.206.789,1.446.63,2.643a15.859,15.859,0,0,1-1.082,2.794A2.746,2.746,0,0,0,87.426,67c.009.054.019.1.03.151a22.276,22.276,0,0,0,4.189,3.173c-.136-.161-.295-.355-.457-.566-.506-.656-.754-.922-.931-1.189-.373-.559-.541-.656-.772-1.064a4.665,4.665,0,0,0,.692,1.135,11.168,11.168,0,0,0,.994,1.162,5.426,5.426,0,0,1-2.235-1.7,6.125,6.125,0,0,1-.887-2.989c.958.789,1.552.594,2.226,1.614a16.932,16.932,0,0,1,1.038,2.847,7.171,7.171,0,0,0,.625.922q.752.432,1.551.823a4.207,4.207,0,0,1-.553-.823c-.337-.71-.523-1-.639-1.286-.239-.594-.381-.719-.515-1.144a4.421,4.421,0,0,0,.426,1.2,11.5,11.5,0,0,0,.71,1.277,5.35,5.35,0,0,1-1.774-2.058,5.593,5.593,0,0,1-.239-2.909c.754.931,1.357.878,1.783,1.96a14.866,14.866,0,0,1,.408,2.821,2.706,2.706,0,0,0,.479.923c.04.053.081.1.118.141a29.722,29.722,0,0,0,4.108,1.6c-.19-.123-.45-.3-.723-.5-.594-.443-.878-.612-1.1-.8-.47-.39-.639-.435-.94-.736a4.206,4.206,0,0,0,.9.816,9.951,9.951,0,0,0,1.144.763,5.074,5.074,0,0,1-2.35-.931,5.746,5.746,0,0,1-1.535-2.359c1.02.452,1.481.142,2.324.869a15.452,15.452,0,0,1,1.623,2.191,8.489,8.489,0,0,0,.938.769q.654.2,1.327.365a4.75,4.75,0,0,1-.855-.824c-.479-.63-.71-.887-.878-1.144m28.974-3.388q-.542.46-1.127.893a21.944,21.944,0,0,0,.935-2.694,6.6,6.6,0,0,1-.532,1.978,2.234,2.234,0,0,0,.724-.177m-5.662,3.546q-.6.275-1.225.527a19.716,19.716,0,0,0,1.906-2.29,6.755,6.755,0,0,1-1.215,1.685,2.649,2.649,0,0,0,.535.078m-6.429,2.089q-.493.1-1,.176a27.061,27.061,0,0,0,2.322-1.589,7.161,7.161,0,0,1-1.623,1.268,2.773,2.773,0,0,0,.3.144m-6.238,1.676,0,.014c2.039,1.076,3.29,2.595,3.107,4.535l-.843.444c.342-1.849-.758-3.456-2.505-4.542Zm-.246.451a.8.8,0,0,1-.164.135h0l0,0-.027.015h0l-.008,0-.008,0-.008,0h0l-.012.006-.005,0h0l-.008,0-.008,0Zm-.326.207-.012,0h0l-.008,0-.017,0-.008,0h0l-.009,0-.008,0h-.009l-.008,0-.013,0h-.146l-.049-.008h0l-.008,0-.012,0h0l-.009,0h0l-.013,0h0l-.009,0h0l-.007,0-.008,0h0l0,0-.008,0-.007,0h0l-.008,0-.008,0h0l-.007,0-.008,0,0,0,0,0-.008,0-.007,0h0l-.008,0-.008,0-.031-.017-.007,0h0l-.008,0-.007,0h0l-.006,0-.007,0-.015-.01-.007,0h0l-.012-.009h0l0,0-.005,0-.007-.006,0,0,0,0-.014-.011h0l-.007-.006-.007-.006,0,0,0,0-.007-.006,0,0,0,0-.007-.006-.006-.007h0l-.006-.007-.006-.007,0,0,0,0c-1.745,1.086-2.842,2.692-2.5,4.54l-.843-.444c-.183-1.938,1.064-3.456,3.1-4.531v-.005Zm-.856-1.56a.714.714,0,0,1,1.379.02Zm.908,1.543h0l-.006,0h0l-.01,0h0l-.016.005-.012,0ZM90.1,13.455c.071-.071.133-.142.2-.213a5.265,5.265,0,0,1,2.865-1.463,5.552,5.552,0,0,1,4.9,1.676,5.665,5.665,0,0,1,1.375,2.51,2.074,2.074,0,0,0,1.277,1.5,1.592,1.592,0,0,1-1.127.142,5.353,5.353,0,0,1-.417,1.765A5.165,5.165,0,0,1,98.061,21a2.856,2.856,0,0,0-.772,1.322,3.014,3.014,0,0,0-.044,1.295,3.053,3.053,0,0,0,.922,1.667,3,3,0,0,0,2.519.763,2.838,2.838,0,0,0,1.535-.763c.018-.027.044-.044.062-.071.461-.514.887-1.047,1.3-1.605a1.584,1.584,0,0,1-.923-.647,2.1,2.1,0,0,0,1.765-.639,1.994,1.994,0,0,0,.257-.337,23.2,23.2,0,0,0,1.419-2.617,24.229,24.229,0,0,0,1.029-2.59,1.6,1.6,0,0,1-1.073-.328,2.119,2.119,0,0,0,1.623-1.552c.142-.568.222-.931.319-1.446.027-.106.044-.231.071-.364a4.068,4.068,0,0,0,.018-1.348A2.9,2.9,0,0,0,105.1,9.33c-1.162.044-2.75-.018-2.75-.018a1.861,1.861,0,0,1-1.783-1.482,1.744,1.744,0,0,0,1.26.639,9.8,9.8,0,0,0,1.091-.107,2.008,2.008,0,0,0-1.809-.771,3.934,3.934,0,0,0-.586.044.847.847,0,0,0-.718.878.977.977,0,0,0,.035.24,1.53,1.53,0,0,1-.257-.807,1.948,1.948,0,0,1,2.1-1.747,2.4,2.4,0,0,1,.435.035,2.144,2.144,0,0,1,2.013-1.455c.053,0,.115-.009.168-.009a7.943,7.943,0,0,1,5.162,1.792,2.963,2.963,0,0,0,2.164.621,1.548,1.548,0,0,1-.923.639,11.155,11.155,0,0,1,1.951,4.266c.027.124.151.647.275,1.366a22.285,22.285,0,0,1,.4,4.329,2.091,2.091,0,0,0,.6,1.588,2.321,2.321,0,0,0,.665.452,1.751,1.751,0,0,1-1.118.151,17.989,17.989,0,0,0,.461,2.306.391.391,0,0,0,.009.044,2.707,2.707,0,0,0,3.007,1.889,2.508,2.508,0,0,0,2.049-1.889,2.453,2.453,0,0,0,.027-1.109,2.609,2.609,0,0,0-.612-1.277,4.973,4.973,0,0,1-1.3-2.483,4.587,4.587,0,0,1,1.118-4,4.5,4.5,0,0,1,2.626-1.41,4.756,4.756,0,0,1,4,1.206c.071.062.133.133.2.2.319.328.63.656.922.994a2.057,2.057,0,0,0,2.191.789,1.647,1.647,0,0,1-.976.727,24.035,24.035,0,0,1,2.12,3.406h.009a24.95,24.95,0,0,1,1.277,2.954,25.687,25.687,0,0,1,.843,2.962A23.938,23.938,0,0,1,132,29.225c.027.435.035.869.035,1.3,0,.222,0,.443-.009.665q-.027,1-.133,1.969l-1.051,0,1.051,0q-.106,1-.293,1.969c-.124.665-.275,1.322-.461,1.969a24.631,24.631,0,0,1-1.472,3.938,25.466,25.466,0,0,1-1.677,2.963,24.829,24.829,0,0,1-2.3,2.954c-.266.293-.532.568-.807.843-.2.2-.39.4-.559.6a1.7,1.7,0,0,0-.417.922.866.866,0,0,0-.009.151,2.192,2.192,0,0,1-.328-.257,2.132,2.132,0,0,1-.594-2.262,1.679,1.679,0,0,1,.373-.594l.035-.036a23.072,23.072,0,0,0,2.031-2.324,22.675,22.675,0,0,0,1.889-2.963,22.072,22.072,0,0,0,1.641-3.938c.2-.647.373-1.3.514-1.969.053-.248.1-.488.142-.736.071-.417.133-.825.186-1.242h0c.079-.662.123-1.316.141-1.969h.009q.027-.984-.027-1.969a22.582,22.582,0,0,0-1.517-6.9c-.186-.461-.381-.914-.594-1.366l-.018-.018a.425.425,0,0,0-.381-.239.437.437,0,0,0-.435.444.387.387,0,0,0,.036.168c.16.328.31.674.452,1.011a22.673,22.673,0,0,1,.976,2.962,21.546,21.546,0,0,1,.6,3.938q.053.984.027,1.969a18.747,18.747,0,0,1-.16,1.978c-.044.355-.1.718-.159,1.082-.053.3-.115.594-.178.887-.142.665-.328,1.331-.532,1.969a21.42,21.42,0,0,1-1.721,3.938,22.63,22.63,0,0,1-1.685,2.554c-.107.133-.2.266-.3.408-.053.08-.106.168-.16.248a1.735,1.735,0,0,0-.293.976c0,.053.009.1.009.151a2.88,2.88,0,0,1-.355-.213,2.237,2.237,0,0,1-.842-1.162,1.82,1.82,0,0,1,.248-1.65.124.124,0,0,0,.027-.036q.479-.612.9-1.277a19.189,19.189,0,0,0,1.96-3.938,20.294,20.294,0,0,0,.594-1.969c.1-.417.186-.834.257-1.251.044-.239.089-.479.115-.727h0a18.708,18.708,0,0,0,.176-1.969c.018-.656.009-1.322-.035-1.969a19.355,19.355,0,0,0-.674-3.938c-.177-.621-.381-1.233-.612-1.827a.435.435,0,0,0-.843.16.5.5,0,0,0,.027.16c.2.5.373.994.523,1.508a18.789,18.789,0,0,1,.71,3.938,18.2,18.2,0,0,1,.027,1.969c-.027.657-.089,1.313-.178,1.978-.027.186-.062.381-.1.568-.08.479-.186.94-.3,1.4a18.08,18.08,0,0,1-.621,1.969,18.954,18.954,0,0,1-1.268,2.679,7.092,7.092,0,0,0-.381.718,1.676,1.676,0,0,0-.168.541,2.012,2.012,0,0,0,0,.461c.009.053.027.1.036.151a2.08,2.08,0,0,1-.381-.168,2.226,2.226,0,0,1-.586-.444,1.941,1.941,0,0,1-.372-2.262l.027-.044a17.626,17.626,0,0,0,.825-1.632,15.392,15.392,0,0,0,.718-1.969,16.464,16.464,0,0,0,.417-1.765c.009-.071.027-.142.035-.213h0a16.809,16.809,0,0,0,.2-1.969,16.131,16.131,0,0,0-.036-1.969,15.936,15.936,0,0,0-.709-3.628.424.424,0,0,0-.417-.293.435.435,0,0,0-.434.435.369.369,0,0,0,.027.142,15.612,15.612,0,0,1,.656,3.344,16.149,16.149,0,0,1,.036,1.969,15.094,15.094,0,0,1-.213,1.978.113.113,0,0,0-.009.053,15.109,15.109,0,0,1-.47,1.916c-.142.461-.3.9-.488,1.348a5.909,5.909,0,0,0-.231.621c-.018.044-.027.08-.044.124a1.8,1.8,0,0,0-.036,1.02c.018.053.036.089.053.142a2.265,2.265,0,0,1-.4-.115,2.231,2.231,0,0,1-1.25-1.171,1.783,1.783,0,0,1-.053-1.384c.009-.018.018-.027.027-.044.08-.177.142-.364.213-.541a14.713,14.713,0,0,0,.559-1.969c.018-.106.036-.2.053-.31a13.314,13.314,0,0,0,.186-1.667,12.136,12.136,0,0,0-.044-1.969,12.9,12.9,0,0,0-.3-1.845.442.442,0,0,0-.426-.31.435.435,0,0,0-.434.434.452.452,0,0,0,.018.115,14.106,14.106,0,0,1,.275,1.605,13.194,13.194,0,0,1,.044,1.969,12.6,12.6,0,0,1-.177,1.517c-.027.151-.062.31-.089.461-.044.2-.1.417-.151.621-.071.257-.133.523-.177.772a1.782,1.782,0,0,0-.018.576,2,2,0,0,0,.124.435,1.078,1.078,0,0,0,.071.142,3.43,3.43,0,0,1-.417-.062,2.364,2.364,0,0,1-.994-.515,1.9,1.9,0,0,1-.63-1.854.224.224,0,0,0,.018-.044.26.26,0,0,1,.018-.08h0c.07-.272.132-.535.176-.816a10.264,10.264,0,0,0,.142-1.153,9.708,9.708,0,0,0-.062-1.969c-.009-.133-.036-.266-.053-.39a.439.439,0,0,0-.869.08.246.246,0,0,0,.009.08c.009.071.018.151.036.231a9.686,9.686,0,0,1,.062,1.969c-.018.2-.035.39-.062.594-.036.266-.053.541-.062.8a1.642,1.642,0,0,0,.053.585,2.034,2.034,0,0,0,.178.408c.027.044.053.08.08.124a2.207,2.207,0,0,1-.417-.009,2.281,2.281,0,0,1-1.242-.523,1.881,1.881,0,0,1-.674-1.605v-.053c.018-.106.027-.213.036-.319a7.046,7.046,0,0,0,.009-1.295.433.433,0,0,0-.426-.39.437.437,0,0,0-.443.434l.009.027.018.071v.488c0,.222,0,.443-.009.665-.018.665-.062,1.322-.133,1.978s-.168,1.322-.293,1.969c-.1.5-.2.994-.328,1.481.248.151.488.319.718.488a11.225,11.225,0,0,1,3.362,3.938,11.034,11.034,0,0,1,.9,2.4l.036.133a1.655,1.655,0,0,0,.231.426,1.676,1.676,0,0,0,1.286.576,1.349,1.349,0,0,0,.266-.018,1.181,1.181,0,0,1-.08.461c-.31.913-1.6,1.295-2.874.851-.062-.018-.124-.044-.177-.062l.656,1.144L120.6,51.9l.47.816a1.555,1.555,0,0,0,1.747.789,1.441,1.441,0,0,1,.2-.009,1.132,1.132,0,0,1,1.135,1.135,1.066,1.066,0,0,1-.053.337c.852.577,1.676,1.2,2.466,1.854l.8.692-.994,1.206a28.547,28.547,0,0,0-2.351-1.9c-.337-.248-.692-.488-1.047-.727a1.141,1.141,0,0,1-1.162.2.523.523,0,0,0,.275-.452.548.548,0,0,0-.266-.461,27.845,27.845,0,0,0-14.227-3.885,27.346,27.346,0,0,0-4.772.408,27.806,27.806,0,0,0-9.455,3.486.515.515,0,0,0-.266.452.523.523,0,0,0,.275.452,1.1,1.1,0,0,1-.426.08,1.135,1.135,0,0,1-.736-.266q-.532.346-1.038.718a28.467,28.467,0,0,0-2.342,1.907l-1.02-1.215q.386-.346.8-.692a30.12,30.12,0,0,1,2.484-1.854,1.074,1.074,0,0,1-.062-.337A1.166,1.166,0,0,1,92.34,53.5a1.789,1.789,0,0,0,.373.044,1.592,1.592,0,0,0,1.4-.834l.461-.816,2.82-4.932.657-1.144c-.053.018-.115.044-.168.062-1.277.444-2.572.062-2.883-.851a1.176,1.176,0,0,1-.08-.461,1.391,1.391,0,0,0,.275.018,1.495,1.495,0,0,0,1.508-1l.035-.133a11.509,11.509,0,0,1,.9-2.4,11.337,11.337,0,0,1,3.37-3.938q.346-.253.718-.479c-.124-.5-.239-.994-.328-1.49-.124-.647-.231-1.3-.3-1.969s-.115-1.313-.133-1.978c-.009-.222-.009-.443-.009-.665,0-.16,0-.319.009-.488l.018-.071v-.027a.435.435,0,0,0-.435-.434.441.441,0,0,0-.434.39,7.894,7.894,0,0,0,.009,1.295c.009.107.027.213.036.319v.053a1.857,1.857,0,0,1-.674,1.605,2.254,2.254,0,0,1-1.242.523,2.2,2.2,0,0,1-.417.009c.027-.044.062-.08.089-.124a1.972,1.972,0,0,0,.168-.408,1.88,1.88,0,0,0,.062-.585,6.17,6.17,0,0,0-.071-.8c-.027-.2-.044-.4-.062-.594a9.682,9.682,0,0,1,.071-1.969,1.756,1.756,0,0,1,.036-.231v-.08a.435.435,0,0,0-.435-.434.446.446,0,0,0-.434.355c-.018.124-.036.257-.053.39a10.412,10.412,0,0,0-.062,1.969,10.263,10.263,0,0,0,.142,1.153c.053.284.115.55.177.816l-2.146.009h2.146a.661.661,0,0,1,.027.071c0,.027.009.027.009.044a1.882,1.882,0,0,1-.63,1.854,2.314,2.314,0,0,1-.994.515,3.3,3.3,0,0,1-.408.062,1.021,1.021,0,0,1,.071-.142,1.979,1.979,0,0,0,.115-.435,1.789,1.789,0,0,0-.018-.576,6.439,6.439,0,0,0-.177-.772c-.053-.2-.1-.417-.142-.621-.036-.151-.062-.31-.1-.461a12.629,12.629,0,0,1-.169-1.517,11.212,11.212,0,0,1,.044-1.969,12.366,12.366,0,0,1,.266-1.605.245.245,0,0,0,.018-.115.435.435,0,0,0-.435-.434.423.423,0,0,0-.417.31,12.918,12.918,0,0,0-.31,1.845,13.63,13.63,0,0,0,.142,3.637c.018.107.044.2.062.31a13.451,13.451,0,0,0,.55,1.969c.071.177.142.364.213.541.009.018.018.027.027.044a1.822,1.822,0,0,1-.044,1.384A2.329,2.329,0,0,1,93.493,38.4c.018-.053.035-.089.053-.142a1.732,1.732,0,0,0-.036-1.02c-.009-.044-.027-.08-.035-.124-.071-.2-.151-.417-.239-.621a14.333,14.333,0,0,1-.488-1.348,15.084,15.084,0,0,1-.461-1.916.291.291,0,0,1-.015-.053h0a18.884,18.884,0,0,1-.213-1.978,15.707,15.707,0,0,1,.7-5.313.692.692,0,0,0,.018-.142.438.438,0,0,0-.852-.142,16.516,16.516,0,0,0-.71,3.628,18.187,18.187,0,0,0-.035,1.969,18.51,18.51,0,0,0,.2,1.969l-2.111.009h2.111a1.434,1.434,0,0,1,.036.2,16.469,16.469,0,0,0,.417,1.765,16.768,16.768,0,0,0,.718,1.969,17.566,17.566,0,0,0,.825,1.632l.027.044a1.941,1.941,0,0,1-.373,2.262,2.048,2.048,0,0,1-.576.444,2.477,2.477,0,0,1-.39.168.931.931,0,0,0,.035-.151,1.984,1.984,0,0,0,0-.461,1.663,1.663,0,0,0-.168-.541,7.039,7.039,0,0,0-.381-.718,19.011,19.011,0,0,1-1.268-2.679,20.387,20.387,0,0,1-.621-1.969c-.115-.461-.213-.922-.3-1.4-.036-.186-.062-.381-.089-.568a18.846,18.846,0,0,1-.186-1.978,18.256,18.256,0,0,1,.035-1.969,17.729,17.729,0,0,1,.71-3.938c.151-.514.32-1.011.515-1.508a.5.5,0,0,0,.027-.16.437.437,0,0,0-.434-.444.422.422,0,0,0-.4.284,16.34,16.34,0,0,0-.612,1.827,18.759,18.759,0,0,0-.683,3.938,18.2,18.2,0,0,0-.027,1.969,18.416,18.416,0,0,0,.168,1.969l-2.111.009h2.111c.035.239.071.479.115.718q.106.638.266,1.251a18.036,18.036,0,0,0,.594,1.969,19.158,19.158,0,0,0,1.951,3.938q.426.665.9,1.277a.069.069,0,0,0,.035.036,1.874,1.874,0,0,1,.248,1.65,2.339,2.339,0,0,1-.842,1.162,3.005,3.005,0,0,1-.364.213.874.874,0,0,0,.018-.151,1.674,1.674,0,0,0-.3-.976c-.044-.08-.106-.168-.16-.248-.089-.142-.2-.275-.293-.408a21.585,21.585,0,0,1-1.694-2.554,22.055,22.055,0,0,1-1.721-3.938c-.2-.639-.381-1.3-.532-1.969-.062-.293-.124-.585-.178-.887-.062-.364-.115-.728-.16-1.082-.08-.665-.133-1.321-.16-1.978s-.009-1.313.027-1.969a20.8,20.8,0,0,1,.612-3.938,20.328,20.328,0,0,1,.976-2.962c.142-.337.284-.665.443-1a.449.449,0,0,0,.036-.177.437.437,0,0,0-.435-.444.425.425,0,0,0-.381.239l-.018.018c-.2.452-.408.9-.585,1.366a22.53,22.53,0,0,0-.94,2.962,21.518,21.518,0,0,0-.577,3.938,18.224,18.224,0,0,0-.026,1.969c.018.657.071,1.313.151,1.969l-2.111.009h2.111c.044.408.106.816.177,1.233.044.248.1.488.151.736q.213,1,.506,1.969a22.452,22.452,0,0,0,5.561,9.225.069.069,0,0,1,.036.036,1.679,1.679,0,0,1,.373.594,2.132,2.132,0,0,1-.594,2.262,2.218,2.218,0,0,1-.328.257.841.841,0,0,0-.009-.151,1.7,1.7,0,0,0-.417-.922c-.16-.2-.364-.408-.55-.6-.275-.275-.55-.55-.807-.843a23.8,23.8,0,0,1-3.974-5.916,23.8,23.8,0,0,1-1.481-3.938c-.177-.647-.337-1.3-.461-1.969q-.186-.971-.293-1.969c-.071-.656-.115-1.313-.133-1.978,0-.222-.009-.443-.009-.665,0-.435.018-.869.035-1.3a23.914,23.914,0,0,1,.532-3.938,25.229,25.229,0,0,1,.842-2.962,24.294,24.294,0,0,1,1.277-2.954,24.911,24.911,0,0,1,2.226-3.557,1.57,1.57,0,0,1-.994-.754,2.1,2.1,0,0,0,2.217-.718c.266-.3.532-.594.816-.887M103.7,6.989a.386.386,0,1,1,.772,0,.386.386,0,0,1-.772,0m7.619,12.382a.526.526,0,0,0-.9,0,.541.541,0,0,0-.071.266,3.337,3.337,0,0,0,.523,1.552,3.369,3.369,0,0,0,.523-1.526v-.027a.541.541,0,0,0-.071-.266m-2.421,0a.549.549,0,0,0-.453-.257.526.526,0,0,0-.452.257.543.543,0,0,0-.071.266v.027a3.237,3.237,0,0,0,.523,1.526,3.337,3.337,0,0,0,.524-1.552.543.543,0,0,0-.071-.266m1.082-1.118a3.2,3.2,0,0,1-.523-1.526V16.71a.526.526,0,0,1,.523-.532.532.532,0,0,1,.523.532,3.3,3.3,0,0,1-.523,1.543m-3.495,4.071a.531.531,0,0,1,.488-.337.525.525,0,0,1,.5.337.623.623,0,0,1,.027.186,3.238,3.238,0,0,1-.523,1.552,3.26,3.26,0,0,1-.515-1.535v-.018a.63.63,0,0,1,.027-.186m2.43,0a.521.521,0,0,1,.976,0,.631.631,0,0,1,.035.186v.018a3.37,3.37,0,0,1-.523,1.535,3.338,3.338,0,0,1-.523-1.552.433.433,0,0,1,.036-.186m2.377,0a.525.525,0,0,1,1.038,0v.08c.009.009,0,.027,0,.027a3.192,3.192,0,0,1-.515,1.526A3.3,3.3,0,0,1,111.3,22.4Zm-6.271,2.962v-.053a.526.526,0,0,1,.523-.532.532.532,0,0,1,.523.532c0,.018-.009.036-.009.053a3.287,3.287,0,0,1-.514,1.49,3.2,3.2,0,0,1-.523-1.49m2.413,0a.521.521,0,0,1,1.038,0v.044a3.239,3.239,0,0,1-.523,1.552,3.253,3.253,0,0,1-.515-1.534v-.062Zm2.422,0a.522.522,0,0,1,.523-.479.508.508,0,0,1,.515.479.067.067,0,0,1,.009.044v.018a3.368,3.368,0,0,1-.523,1.534,3.333,3.333,0,0,1-.523-1.552Zm2.412,0v-.053a.519.519,0,1,1,1.038,0,.012.012,0,0,1,0,.018v.036a3.287,3.287,0,0,1-.514,1.49,3.3,3.3,0,0,1-.523-1.49m-.6,3.938a3.284,3.284,0,0,0,.319-1.162v-.027a.523.523,0,0,0-1.047,0,3.426,3.426,0,0,0,.32,1.189,2.907,2.907,0,0,0,.2.364,2.941,2.941,0,0,0,.2-.364m-2.484,0a3.611,3.611,0,0,0,.266-1.064v-.027a.519.519,0,0,0-.523-.523.524.524,0,0,0-.523.523,3.534,3.534,0,0,0,.275,1.091,3.255,3.255,0,0,0,.249.461,2.931,2.931,0,0,0,.257-.461m-2.43,0a3.527,3.527,0,0,0,.275-1.091.524.524,0,0,0-.523-.523.519.519,0,0,0-.523.523v.027a3.6,3.6,0,0,0,.266,1.064,2.931,2.931,0,0,0,.257.461,2.553,2.553,0,0,0,.248-.461m-2.581,0a3.42,3.42,0,0,0,.319-1.189.518.518,0,0,0-.523-.523.524.524,0,0,0-.523.523.091.091,0,0,0,.009.027,3.273,3.273,0,0,0,.311,1.162c.062.124.133.248.2.364a2.905,2.905,0,0,0,.2-.364m-1.729,1.969a3.043,3.043,0,0,1-.053-.4v-.027a.522.522,0,0,1,.514-.523.532.532,0,0,1,.532.523c-.018.142-.035.284-.062.426a3.358,3.358,0,0,1-.461,1.127,3.265,3.265,0,0,1-.47-1.127m2.253,0a1.33,1.33,0,0,1-.018-.186.03.03,0,0,1-.009-.018.523.523,0,0,1,1.047,0,1.614,1.614,0,0,1-.027.2,3.169,3.169,0,0,1-.5,1.348,3.34,3.34,0,0,1-.5-1.348m2.4,0a.24.24,0,0,0-.009-.08v-.027a.519.519,0,0,1,.523-.523.524.524,0,0,1,.523.523c0,.035-.009.071-.009.106a3.364,3.364,0,0,1-.515,1.446,3.323,3.323,0,0,1-.514-1.446m2.395,0c-.009-.071-.018-.133-.027-.2a.524.524,0,0,1,.523-.523.519.519,0,0,1,.523.523v.018q-.013.093-.027.186a3.209,3.209,0,0,1-.5,1.348,3.292,3.292,0,0,1-.5-1.348m2.324,0a2.36,2.36,0,0,1-.062-.426.519.519,0,1,1,1.038,0c.009.009,0,.027,0,.027a3.042,3.042,0,0,1-.053.4,3.25,3.25,0,0,1-.461,1.127,3.022,3.022,0,0,1-.461-1.127M103.7,33.172a.487.487,0,0,1,.257-.071.543.543,0,0,1,.266.071.526.526,0,0,1,.257.452,3.451,3.451,0,0,1-.5,1.517.124.124,0,0,0-.027.036c-.009-.018-.009-.027-.018-.036a3.2,3.2,0,0,1-.5-1.5.012.012,0,0,1,0-.018.507.507,0,0,1,.257-.452m7.247,0a.486.486,0,0,1,.257-.071.543.543,0,0,1,.266.071.526.526,0,0,1,.257.452v.018a3.3,3.3,0,0,1-.5,1.5.124.124,0,0,0-.027.036c-.009-.018-.009-.027-.018-.036a3.349,3.349,0,0,1-.506-1.517.515.515,0,0,1,.266-.452m-4.666,1.969a3.413,3.413,0,0,1-.434-1.392v-.027a.523.523,0,0,1,1.047,0,3.414,3.414,0,0,1-.443,1.419l-.08.133a1.127,1.127,0,0,0-.089-.133m2.43,0a3.28,3.28,0,0,1-.435-1.419.519.519,0,1,1,1.038,0v.027a3.417,3.417,0,0,1-.435,1.392l-.08.133a1.159,1.159,0,0,1-.089-.133m-4.266,1.969a3.952,3.952,0,0,1-.142-.718v-.027a.524.524,0,0,1,.523-.523.53.53,0,0,1,.523.523,3.559,3.559,0,0,1-.142.745,3.07,3.07,0,0,1-.381.807,2.815,2.815,0,0,1-.381-.807m2.75,0a3.616,3.616,0,0,1-.106-.621.012.012,0,0,1,0-.018.519.519,0,1,1,1.038,0,3.216,3.216,0,0,1-.115.639,3,3,0,0,1-.408.9,3.1,3.1,0,0,1-.408-.9m2.776,0a3.593,3.593,0,0,1-.151-.745.53.53,0,0,1,.523-.523.524.524,0,0,1,.523.523v.027a3.335,3.335,0,0,1-.142.718,2.815,2.815,0,0,1-.381.807,3.051,3.051,0,0,1-.373-.807m.993,3.681a3.189,3.189,0,0,0,.515-1.526.089.089,0,0,0,.009-.027.523.523,0,0,0-1.047,0,3.307,3.307,0,0,0,.523,1.552m-2.288.1a3.293,3.293,0,0,0,.523-1.526v-.018a.523.523,0,1,0-1.047,0,3.272,3.272,0,0,0,.523,1.543m-4.47-.1a3.191,3.191,0,0,1-.514-1.526v-.027a.519.519,0,1,1,1.038,0,3.21,3.21,0,0,1-.523,1.552m2.288.1a3.189,3.189,0,0,1-.514-1.526.012.012,0,0,1,0-.018.519.519,0,1,1,1.038,0,3.269,3.269,0,0,1-.523,1.543m4.843,3.122a3.793,3.793,0,0,1-.133-.417c-.027.133-.062.275-.089.417-.115.532-.222,1.082-.32,1.623q-.12.665-.213,1.331c-.151,1.029-.257,2.049-.328,3.06a29.572,29.572,0,0,1,4.63.807.878.878,0,0,1,.842-.63c.346,0,.505.168.781.488a3.925,3.925,0,0,0,1.082.834.526.526,0,0,0,.239.053.613.613,0,0,0,.612-.612.565.565,0,0,0-.1-.319l-.018-.036-2.084-3.645-.231-.408a2.928,2.928,0,0,1-.266.408,2.1,2.1,0,0,1-.32.373,2.925,2.925,0,0,1-1.6.852,1.655,1.655,0,0,0,.044-.373,1.714,1.714,0,0,0-.222-.852,1.4,1.4,0,0,0-.417-.461,5.286,5.286,0,0,1-1.9-2.492m-7.273,0c-.035-.142-.062-.284-.1-.417a3.74,3.74,0,0,1-.133.417,5.285,5.285,0,0,1-1.9,2.492,1.472,1.472,0,0,0-.408.461,1.819,1.819,0,0,0-.231.852,1.641,1.641,0,0,0,.044.373,2.955,2.955,0,0,1-1.6-.852,3.222,3.222,0,0,1-.319-.373,2.859,2.859,0,0,1-.257-.408l-.239.408L96.846,50.61l-.018.036a.558.558,0,0,0-.089.319.613.613,0,0,0,.612.612.516.516,0,0,0,.231-.053,3.928,3.928,0,0,0,1.082-.834c.284-.319.444-.488.781-.488a.878.878,0,0,1,.842.63,29.572,29.572,0,0,1,4.63-.807c-.071-1.011-.177-2.031-.328-3.06q-.093-.665-.213-1.331c-.1-.541-.2-1.091-.31-1.623m5.943-.408a3.234,3.234,0,0,0,.523-1.526v-.027a.519.519,0,0,0-.523-.523.53.53,0,0,0-.523.523,3.333,3.333,0,0,0,.523,1.552m-4.843,0a3.33,3.33,0,0,1-.523-1.526v-.027a.519.519,0,0,1,.523-.523.524.524,0,0,1,.523.523,3.336,3.336,0,0,1-.523,1.552m2.413.1a3.235,3.235,0,0,1-.523-1.526v-.027a.524.524,0,0,1,.523-.523.53.53,0,0,1,.523.523,3.3,3.3,0,0,1-.523,1.552m1.162,2.75a3.233,3.233,0,0,0,.523-1.526V44.9a.519.519,0,0,0-.523-.523.524.524,0,0,0-.523.523,3.335,3.335,0,0,0,.523,1.552m-2.306,0a3.332,3.332,0,0,1-.523-1.526V44.9a.519.519,0,0,1,.523-.523.524.524,0,0,1,.523.523,3.338,3.338,0,0,1-.523,1.552m1.153,2.838a3.2,3.2,0,0,1-.523-1.526v-.018a.525.525,0,0,1,.515-.532.534.534,0,0,1,.532.532,3.405,3.405,0,0,1-.523,1.543m-3.486,7.53.763-.106a.432.432,0,0,1-.009.106,47.136,47.136,0,0,1-.763,4.932c-.319,1.472-.7,2.9-1.153,4.364a20.28,20.28,0,0,0,4.648.559,22.807,22.807,0,0,0,4.736-.541,31.929,31.929,0,0,1-1.251-4.382,47.953,47.953,0,0,1-.745-4.932.421.421,0,0,1-.009-.106c.266.027.532.062.807.106a23.315,23.315,0,0,1,9.881,4.071,21.31,21.31,0,0,0-2.537-.275l-.168,1.135-.044.31a26.259,26.259,0,0,1,4.843.559l.718-.869.284-.346a24.456,24.456,0,0,0-25.847-4.586,24.673,24.673,0,0,0-7.193,4.586l.284.346.736.869a26.25,26.25,0,0,1,4.834-.559l-.044-.31L96.7,60.607a23.359,23.359,0,0,0-2.537.284,23.126,23.126,0,0,1,9.943-4.071m2.2,4.932A3.216,3.216,0,0,1,106,60.6s-.009-.018,0-.027a.519.519,0,1,1,1.038,0,3.569,3.569,0,0,1-.31,1.18,2.561,2.561,0,0,1-.213.373,2.563,2.563,0,0,1-.213-.373m2.182,0a3.576,3.576,0,0,1-.31-1.18.523.523,0,0,1,1.047,0V60.6a3.421,3.421,0,0,1-.311,1.153,2.538,2.538,0,0,1-.213.373,2.561,2.561,0,0,1-.213-.373m-.86-2.75a3.193,3.193,0,0,1-.514-1.526s-.009-.018,0-.027a.519.519,0,1,1,1.038,0A3.3,3.3,0,0,1,107.623,59m2.156,6.076a3.2,3.2,0,0,0,.523-1.526v-.027a.522.522,0,0,0-.514-.523.532.532,0,0,0-.532.523,3.4,3.4,0,0,0,.523,1.552m-4.346,0a3.2,3.2,0,0,1-.523-1.526v-.027a.524.524,0,0,1,.523-.523.53.53,0,0,1,.523.523,3.3,3.3,0,0,1-.523,1.552m2.164.142a3.269,3.269,0,0,1-.523-1.535v-.018a.519.519,0,0,1,.523-.523.524.524,0,0,1,.523.523,3.337,3.337,0,0,1-.523,1.552M101.822,1.977l.426,2.164a12.98,12.98,0,0,1,5.455-.027l.417-2.138a.579.579,0,0,0-.408-.177.546.546,0,0,0-.443.222l-.523.63a.567.567,0,0,1-.914-.08l-.372-.736a.559.559,0,0,0-.488-.284.539.539,0,0,0-.488.293l-.381.736a.555.555,0,0,1-.488.266.565.565,0,0,1-.435-.2L102.674,2a.559.559,0,0,0-.444-.222.578.578,0,0,0-.408.2M107.738.966a.612.612,0,1,1,.612.612.606.606,0,0,1-.612-.612M104.359.611a.612.612,0,1,1,.612.612.613.613,0,0,1-.612-.612" transform="translate(-58.679 0.001)" fill="#161615" fill-rule="evenodd"/>
    <path id="Tracciato_918" data-name="Tracciato 918" d="M2.422,342.225a6.132,6.132,0,0,0,3.477.984,8.033,8.033,0,0,0,3.956-.958v-1.721a8.045,8.045,0,0,1-1.331.709,6.538,6.538,0,0,1-2.483.523,4.993,4.993,0,0,1-2.306-.523,3.942,3.942,0,0,1-1.224-.984,4.136,4.136,0,0,1-.9-2.643c0-.106.009-.213.018-.319a3.6,3.6,0,0,1,.186-.984,4.2,4.2,0,0,1,4.16-2.874,7.112,7.112,0,0,1,3.761,1.135v-1.685a9.553,9.553,0,0,0-3.743-.9,5.721,5.721,0,0,0-5.828,4.32,5.982,5.982,0,0,0-.151.984c-.009.151-.018.31-.018.47a5.467,5.467,0,0,0,.647,2.493,6.388,6.388,0,0,0,.665.984,5.408,5.408,0,0,0,1.109.985M12.5,336.309v-.444H11.069v7.2H12.5v-6.759Zm5.845,0v-.444h-2.28v-1.49l-1.978,1.934-.692.683v.16h1.242v3.8c0,.1.009.2.018.293a2.377,2.377,0,0,0,.31.985,2.2,2.2,0,0,0,2.013.984,4.346,4.346,0,0,0,1.73-.479V341.4a3.057,3.057,0,0,1-1.614.523.977.977,0,0,1-.976-.683,1.743,1.743,0,0,1-.053-.4v-3.69h2.28Zm5.5,0v-.444H21.563v-1.49l-1.978,1.934-.7.683v.16h1.251v3.8c0,.1.009.2.018.293a2.38,2.38,0,0,0,.31.985,2.2,2.2,0,0,0,2.013.984,4.346,4.346,0,0,0,1.73-.479V341.4a3.058,3.058,0,0,1-1.614.523.977.977,0,0,1-.976-.683,1.362,1.362,0,0,1-.053-.4v-3.69h2.279Zm5.606,0a2.839,2.839,0,0,0-1.863-.585,3.176,3.176,0,0,0-1.978.585,3.446,3.446,0,0,0-.417.39v1.561a3.569,3.569,0,0,1,1.233-.967,2.617,2.617,0,0,1,1.047-.222,1.51,1.51,0,0,1,.887.222,1.2,1.2,0,0,1,.408,1.047v.381l-1.26.453a4.828,4.828,0,0,0-2.022,1.082,1.7,1.7,0,0,0-.426.984c0,.062-.009.133-.009.2a1.8,1.8,0,0,0,.177.781,1.718,1.718,0,0,0,1.588.984,3.117,3.117,0,0,0,1.943-.736c.124.515.461.736,1.082.736a2.323,2.323,0,0,0,1.384-.559v-.869a1.71,1.71,0,0,1-.754.381c-.178,0-.275-.089-.275-.364v-3.7a2.824,2.824,0,0,0-.106-.807,2.054,2.054,0,0,0-.639-.984m11.273,0v-4.178H39.3v3.885a4.151,4.151,0,0,0-1.508-.293,3.745,3.745,0,0,0-2.067.585,3.3,3.3,0,0,0-.967.984,3.71,3.71,0,0,0-.559,2,4.746,4.746,0,0,0,.089.958,3.87,3.87,0,0,0,.31.984,3.357,3.357,0,0,0,.718.985,3.437,3.437,0,0,0,2.377.843h3.025v-6.759Zm3.025,0v-.444H42.318v7.2h1.428v-6.759Zm5.73,0v-2.767h1.836c1.428,0,1.863.869,1.863,1.667a1.67,1.67,0,0,1-.355,1.1,1.977,1.977,0,0,1-1.57.621H49.476Zm5.162,0a3.243,3.243,0,0,0,.16-1.029c0-1.738-1.091-3.149-3.486-3.149H47.906v10.937h1.57V338.34h1.632a3.832,3.832,0,0,0,2.945-1.047,2.714,2.714,0,0,0,.585-.984m4.648,0a2.838,2.838,0,0,0-1.863-.585,3.177,3.177,0,0,0-1.978.585,2.856,2.856,0,0,0-.408.39v1.561a3.464,3.464,0,0,1,1.224-.967,2.616,2.616,0,0,1,1.047-.222,1.509,1.509,0,0,1,.887.222,1.2,1.2,0,0,1,.408,1.047v.381l-1.26.453a4.827,4.827,0,0,0-2.022,1.082,1.7,1.7,0,0,0-.426.984c0,.062-.009.133-.009.2a1.8,1.8,0,0,0,.178.781,1.718,1.718,0,0,0,1.588.984,3.116,3.116,0,0,0,1.942-.736c.124.515.461.736,1.091.736a2.322,2.322,0,0,0,1.375-.559v-.869a1.709,1.709,0,0,1-.754.381c-.177,0-.275-.089-.275-.364v-3.7a2.824,2.824,0,0,0-.106-.807,2.051,2.051,0,0,0-.639-.984m4.107,0v-4.178H61.965v10.937h1.428v-6.759Zm6.537,0a2.965,2.965,0,0,0-1.872-.585,3.355,3.355,0,0,0-1.942.585,3.08,3.08,0,0,0-.9.984,4.1,4.1,0,0,0-.523,2.085,4.749,4.749,0,0,0,.08.878,4.561,4.561,0,0,0,.319.984,3.6,3.6,0,0,0,.674.985,3.281,3.281,0,0,0,2.422.984,4.668,4.668,0,0,0,2.865-.851v-1.375c-.142.089-.275.178-.417.257a4.3,4.3,0,0,1-2.093.6,2.156,2.156,0,0,1-2.288-1.588,2.875,2.875,0,0,1-.133-.576H71.19a5.408,5.408,0,0,0-.47-2.386,2.827,2.827,0,0,0-.789-.984m4,0v-.444H72.511v7.2H73.93V339.3a2.3,2.3,0,0,1,1-2,1.448,1.448,0,0,1,.745-.2,1.487,1.487,0,0,1,.656.2,3.215,3.215,0,0,1,.674.5l.31-.5.443-.736c-.089-.089-.186-.168-.275-.248a2.277,2.277,0,0,0-1.437-.585,1.735,1.735,0,0,0-1.2.585,5.351,5.351,0,0,0-.754.984c-.044.071-.089.151-.133.222H73.93v-1.206Zm5.819,0v-.444H78.321v7.2h1.428v-5.225a3.616,3.616,0,0,1,.568-.55,1.959,1.959,0,0,1,1.224-.363,1.2,1.2,0,0,1,.9.363,1.891,1.891,0,0,1,.4,1.3v4.47h1.428v-5.225a4.049,4.049,0,0,1,.639-.55,1.756,1.756,0,0,1,.967-.363,1.453,1.453,0,0,1,.985.363,1.72,1.72,0,0,1,.505,1.313v4.462h1.428v-4.524a3.7,3.7,0,0,0-.2-1.251,2.4,2.4,0,0,0-.621-.984,2.233,2.233,0,0,0-1.561-.585,2.7,2.7,0,0,0-1.65.585,5.2,5.2,0,0,0-.754.71,3.032,3.032,0,0,0-.568-.71,2.355,2.355,0,0,0-1.588-.585,2.558,2.558,0,0,0-1.517.585,4.915,4.915,0,0,0-.576.505Zm16.347,0a4.269,4.269,0,0,0-2.209-.585,3.925,3.925,0,0,0-2.093.585,3.582,3.582,0,0,0-1.046.984,3.628,3.628,0,0,0-.657,2.1,4.559,4.559,0,0,0,.08.86,3.7,3.7,0,0,0,.346.984,3.488,3.488,0,0,0,.736.985,3.8,3.8,0,0,0,2.634.984,3.993,3.993,0,0,0,2.741-.984,3.7,3.7,0,0,0,.745-.985,3.884,3.884,0,0,0,.328-.984,4.512,4.512,0,0,0,.08-.86,3.639,3.639,0,0,0-.639-2.1,3.583,3.583,0,0,0-1.047-.984m-52.208-2.617a.847.847,0,1,0-.852.842.852.852,0,0,0,.852-.842M27.63,332.583H26.024l1.8,2.359H28.7Zm-14.981,1.109a.851.851,0,1,0-.851.842.857.857,0,0,0,.851-.842m24.153,3.6a2.383,2.383,0,0,1,1.171-.284,3.423,3.423,0,0,1,1.33.266v4.586H37.857a2.12,2.12,0,0,1-1.676-.621,2.145,2.145,0,0,1-.452-.984,4.094,4.094,0,0,1-.071-.745,2.421,2.421,0,0,1,1.144-2.217m30.14,0a1.912,1.912,0,0,1,1.153-.337,1.681,1.681,0,0,1,1.047.337,1.9,1.9,0,0,1,.639,1.446H66.151a2.187,2.187,0,0,1,.789-1.446m25.767,0a2.4,2.4,0,0,1,1.162-.284,2.6,2.6,0,0,1,1.224.284,2.333,2.333,0,0,1,1.233,2.12,3.176,3.176,0,0,1-.106.843,2.318,2.318,0,0,1-.541.984,2.427,2.427,0,0,1-1.809.683,2.229,2.229,0,0,1-1.668-.683,2.372,2.372,0,0,1-.541-.984,3.305,3.305,0,0,1-.115-.86,2.341,2.341,0,0,1,1.162-2.1m-65.637,2.963a6.872,6.872,0,0,1,1.694-.745V341.6a1.806,1.806,0,0,1-1.251.594.969.969,0,0,1-1.02-.958v-.053a1.131,1.131,0,0,1,.577-.931m29.838,0a6.878,6.878,0,0,1,1.694-.745V341.6a1.8,1.8,0,0,1-1.242.594.976.976,0,0,1-1.029-.958v-.053a1.131,1.131,0,0,1,.576-.931" transform="translate(0 -248.124)" fill="#161615" fill-rule="evenodd"/>
  </g>
</svg>
