
<svg id="Raggruppa_3" data-name="Raggruppa 3" xmlns="http://www.w3.org/2000/svg" xmlns:xlink="http://www.w3.org/1999/xlink" width="71.06" height="71.06" viewBox="0 0 71.06 71.06">
  <defs>
    <clipPath id="clip-path">
      <rect id="Rettangolo_3" data-name="Rettangolo 3" width="71.06" height="71.06" fill="none"/>
    </clipPath>
  </defs>
  <rect id="Rettangolo_1" data-name="Rettangolo 1" width="66.051" height="66.051" transform="translate(2.505 2.504)" fill="#d2072a"/>
  <g id="Raggruppa_2" data-name="Raggruppa 2">
    <g id="Raggruppa_1" data-name="Raggruppa 1" clip-path="url(#clip-path)">
      <rect id="Rettangolo_2" data-name="Rettangolo 2" width="70.473" height="70.473" transform="translate(0.294 0.293)" fill="none" stroke="#d2072a" stroke-miterlimit="3.864" stroke-width="5.009"/>
      <path id="Tracciato_1" data-name="Tracciato 1" d="M189.034,65.079a1.858,1.858,0,0,0,1.359.39.989.989,0,0,1-.579.4,6.918,6.918,0,0,1,1.222,2.673,15.681,15.681,0,0,1,.419,3.563c0,.051,0,.1,0,.145a1.313,1.313,0,0,0,.8,1.132,1.068,1.068,0,0,1-.7.1,10.332,10.332,0,0,0,.288,1.445,1.7,1.7,0,0,0,1.891,1.209,1.586,1.586,0,0,0,1.3-1.879,1.727,1.727,0,0,0-.385-.8,3.009,3.009,0,0,1-.813-1.552,2.859,2.859,0,0,1,2.343-3.387,2.992,2.992,0,0,1,2.5.753c.24.244.482.5.705.755a1.284,1.284,0,0,0,1.372.493,1.018,1.018,0,0,1-.608.454A15.308,15.308,0,0,1,198.688,90.9c-.121.115-.244.251-.348.372a1.078,1.078,0,0,0-.262.582.789.789,0,0,0,0,.093,1.407,1.407,0,0,1-.207-.161A1.272,1.272,0,0,1,197.73,90c.005-.009.013-.011.02-.02a14.005,14.005,0,0,0,2.766-15.882l-.009-.015a.273.273,0,0,0-.515.128.355.355,0,0,0,.022.1l0,.011a13.445,13.445,0,0,1-1.493,13.944c-.1.13-.2.275-.288.408a1.116,1.116,0,0,0-.183.61.523.523,0,0,0,.009.1,1.936,1.936,0,0,1-.227-.134,1.276,1.276,0,0,1-.37-1.757.069.069,0,0,1,.022-.026,12.119,12.119,0,0,0,1.676-11.806.269.269,0,0,0-.255-.176.273.273,0,0,0-.273.271.285.285,0,0,0,.02.1,11.643,11.643,0,0,1-.757,10.02c-.088.145-.17.3-.24.451a1.078,1.078,0,0,0-.1.63c0,.031.013.06.017.092a1.412,1.412,0,0,1-.236-.1,1.277,1.277,0,0,1-.6-1.695.092.092,0,0,1,.018-.026,10.36,10.36,0,0,0,1.227-3.361,10.221,10.221,0,0,0-.317-4.873.278.278,0,0,0-.26-.179.274.274,0,0,0-.271.276.348.348,0,0,0,.011.084,9.637,9.637,0,0,1,.3,4.6,9.952,9.952,0,0,1-.6,2.041,4.533,4.533,0,0,0-.174.469,1.11,1.11,0,0,0-.022.639c.011.029.022.055.033.086a1.992,1.992,0,0,1-.251-.071,1.273,1.273,0,0,1-.813-1.6c0-.011.011-.017.015-.026a8.659,8.659,0,0,0,.515-1.766,8.348,8.348,0,0,0-.1-3.429.271.271,0,0,0-.262-.2.276.276,0,0,0-.277.275.246.246,0,0,0,.015.075,7.892,7.892,0,0,1,.086,3.182c-.04.229-.092.458-.148.678a3.336,3.336,0,0,0-.106.485,1.036,1.036,0,0,0,.06.632.582.582,0,0,0,.046.088,1.58,1.58,0,0,1-.262-.042,1.273,1.273,0,0,1-1.017-1.478c0-.013.005-.013.011-.028.048-.183.09-.368.125-.559a6.661,6.661,0,0,0,.015-2.206.279.279,0,0,0-.271-.223.274.274,0,0,0-.273.277.123.123,0,0,0,.007.046,6.1,6.1,0,0,1,.022,1.753,4.277,4.277,0,0,0-.042.5,1.054,1.054,0,0,0,.145.619.764.764,0,0,0,.055.081,1.8,1.8,0,0,1-.262-.006,1.275,1.275,0,0,1-1.2-1.335.1.1,0,0,0,0-.033,4.406,4.406,0,0,0,.028-1.006.27.27,0,0,0-.269-.247.278.278,0,0,0-.275.275.018.018,0,0,0,.006.015l.007.046c.007.1.007.205.007.306a15.283,15.283,0,0,1-.482,3.812,7,7,0,0,1,3.114,4.279.433.433,0,0,1,.022.079.985.985,0,0,0,.949.63,1.058,1.058,0,0,0,.172-.015.881.881,0,0,1-.053.291c-.192.572-1,.808-1.8.533l-.106-.038,2.466,4.312a1,1,0,0,0,.876.52,1.146,1.146,0,0,0,.224-.024.675.675,0,0,1,.117-.009.713.713,0,0,1,.714.711.672.672,0,0,1-.035.212,18.532,18.532,0,0,1,2.042,1.594l-.619.755a17.61,17.61,0,0,0-2.125-1.638.73.73,0,0,1-.465.169.778.778,0,0,1-.267-.051.32.32,0,0,0,.174-.284.339.339,0,0,0-.167-.288,17.491,17.491,0,0,0-17.813.006.325.325,0,0,0,.011.566.746.746,0,0,1-.267.051.707.707,0,0,1-.462-.169,17.228,17.228,0,0,0-2.119,1.645l-.634-.762a18.621,18.621,0,0,1,2.05-1.594.669.669,0,0,1-.035-.212.713.713,0,0,1,.714-.711.554.554,0,0,1,.108.009,1.211,1.211,0,0,0,.234.024.992.992,0,0,0,.874-.52l2.464-4.312-.106.038a1.365,1.365,0,0,1-1.8-.533.8.8,0,0,1-.051-.291,1.023,1.023,0,0,0,1.117-.616c.007-.031.022-.079.022-.079A7.015,7.015,0,0,1,184.19,83.9a15.487,15.487,0,0,1-.484-3.814c0-.1,0-.2.007-.306l.011-.046v-.015a.277.277,0,0,0-.275-.275.272.272,0,0,0-.269.247,4.637,4.637,0,0,0,.029,1.006v.033a1.273,1.273,0,0,1-1.2,1.335,1.755,1.755,0,0,1-.258.006c.017-.029.035-.049.053-.081a1.065,1.065,0,0,0,.141-.619,3.9,3.9,0,0,0-.04-.5,6.032,6.032,0,0,1,.026-1.753c0-.011,0-.031,0-.046a.273.273,0,0,0-.273-.277.28.28,0,0,0-.271.223,6.512,6.512,0,0,0,.016,2.206c.033.191.077.376.125.559,0,.015.006.015.007.028a1.27,1.27,0,0,1-1.017,1.478,1.539,1.539,0,0,1-.258.042c.015-.031.031-.059.044-.088a1.063,1.063,0,0,0,.062-.632,3.893,3.893,0,0,0-.106-.485c-.06-.22-.11-.449-.152-.678a7.857,7.857,0,0,1,.09-3.182.2.2,0,0,0,.013-.075.274.274,0,0,0-.273-.275.27.27,0,0,0-.264.2,8.424,8.424,0,0,0,.414,5.2.15.15,0,0,0,.016.026,1.274,1.274,0,0,1-.817,1.6,1.76,1.76,0,0,1-.251.071c.009-.031.022-.057.031-.086a1.112,1.112,0,0,0-.018-.639c-.051-.154-.106-.313-.174-.469a9.755,9.755,0,0,1-.3-6.639.236.236,0,0,0,.013-.084.274.274,0,0,0-.273-.276.282.282,0,0,0-.26.179,10.246,10.246,0,0,0-.315,4.873,10.36,10.36,0,0,0,1.226,3.361.158.158,0,0,1,.02.026,1.28,1.28,0,0,1-.6,1.695,1.459,1.459,0,0,1-.242.1l.022-.092a1.079,1.079,0,0,0-.106-.63,3.683,3.683,0,0,0-.238-.451,11.626,11.626,0,0,1-.756-10.02.288.288,0,0,0,.02-.1.274.274,0,0,0-.273-.271.266.266,0,0,0-.253.176,12.131,12.131,0,0,0,1.676,11.806l.022.026a1.274,1.274,0,0,1-.374,1.757,1.64,1.64,0,0,1-.223.134c0-.031.009-.06.009-.1a1.118,1.118,0,0,0-.185-.61,4.9,4.9,0,0,0-.288-.408,13.456,13.456,0,0,1-1.493-13.944l0-.011a.27.27,0,0,0,.024-.1.272.272,0,0,0-.513-.128l-.009.015a13.989,13.989,0,0,0,2.766,15.882c0,.009.011.011.016.02a1.272,1.272,0,0,1-.137,1.792,1.3,1.3,0,0,1-.205.161.522.522,0,0,0,0-.093,1.054,1.054,0,0,0-.264-.582,4.659,4.659,0,0,0-.346-.372,15.315,15.315,0,0,1-1.4-20.031.976.976,0,0,1-.626-.473,1.3,1.3,0,0,0,1.385-.451c.207-.233.425-.463.647-.685a3.242,3.242,0,0,1,1.788-.914,3.5,3.5,0,0,1,3.927,2.616,1.314,1.314,0,0,0,.8.943,1,1,0,0,1-.7.084,3.305,3.305,0,0,1-.954,2.132,1.791,1.791,0,0,0-.509,1.636,1.9,1.9,0,0,0,2.156,1.52,1.744,1.744,0,0,0,1-.52q.429-.489.815-1.007a1.01,1.01,0,0,1-.581-.407,1.311,1.311,0,0,0,1.268-.608,15.2,15.2,0,0,0,1.537-3.263.967.967,0,0,1-.672-.2,1.329,1.329,0,0,0,1.017-.973c.106-.429.159-.674.238-1.132a2.41,2.41,0,0,0,.015-.846,1.825,1.825,0,0,0-1.874-1.511c-.725.033-1.72-.009-1.72-.009a1.161,1.161,0,0,1-1.114-.925,1.108,1.108,0,0,0,.791.4,5.844,5.844,0,0,0,.678-.068,1.263,1.263,0,0,0-1.13-.484,3.155,3.155,0,0,0-.368.028.534.534,0,0,0-.451.553.71.71,0,0,0,.024.15.966.966,0,0,1-.158-.511,1.215,1.215,0,0,1,1.31-1.092,1.647,1.647,0,0,1,.273.022,1.349,1.349,0,0,1,1.26-.909c.035,0,.071-.007.108-.007a4.944,4.944,0,0,1,3.226,1.123" transform="translate(-152.334 -56.46)" fill="#e5a300"/>
      <path id="Tracciato_2" data-name="Tracciato 2" d="M282.383,73.982a.238.238,0,1,1,.24.24.239.239,0,0,1-.24-.24" transform="translate(-249.285 -65.097)" fill="#d2072a"/>
      <path id="Tracciato_3" data-name="Tracciato 3" d="M282.383,73.982a.238.238,0,1,1,.24.24A.239.239,0,0,1,282.383,73.982Z" transform="translate(-249.285 -65.097)" fill="none" stroke="#e5a300" stroke-miterlimit="3.864" stroke-width="1.424"/>
      <path id="Tracciato_4" data-name="Tracciato 4" d="M247.391,275.836a.546.546,0,0,0-.522-.4c-.216,0-.315.11-.491.306a2.724,2.724,0,0,1-.678.526.364.364,0,0,1-.148.029.384.384,0,0,1-.381-.385.419.419,0,0,1,.055-.2l.013-.018,1.453-2.537a2.229,2.229,0,0,0,.361.489,1.854,1.854,0,0,0,1,.535,1.1,1.1,0,0,1-.024-.236,1.01,1.01,0,0,1,.4-.822A3.293,3.293,0,0,0,249.7,271.3c.1.423.18.85.256,1.28a25.834,25.834,0,0,1,.337,2.746,18.7,18.7,0,0,0-2.9.507" transform="translate(-216.434 -239.503)" fill="#d2072a"/>
      <path id="Tracciato_5" data-name="Tracciato 5" d="M320.262,275.836a.545.545,0,0,1,.526-.4c.212,0,.313.11.487.306a2.749,2.749,0,0,0,.676.526.372.372,0,0,0,.15.029.387.387,0,0,0,.383-.385.37.37,0,0,0-.059-.2l-.011-.018-1.451-2.537a2.194,2.194,0,0,1-.364.489,1.841,1.841,0,0,1-1,.535,1.1,1.1,0,0,0,.029-.236,1.022,1.022,0,0,0-.4-.822,3.288,3.288,0,0,1-1.273-1.821c-.1.423-.178.85-.256,1.28a26.289,26.289,0,0,0-.339,2.746,18.806,18.806,0,0,1,2.9.507" transform="translate(-280.162 -239.503)" fill="#d2072a"/>
      <path id="Tracciato_6" data-name="Tracciato 6" d="M216.807,335.812a14.483,14.483,0,0,1,6.7-2.61,28.338,28.338,0,0,1-1.207,5.882,12.883,12.883,0,0,0,2.913.35,14.238,14.238,0,0,0,2.958-.337,23.939,23.939,0,0,1-1.251-5.9,14.482,14.482,0,0,1,6.69,2.614,14.56,14.56,0,0,0-1.588-.174l-.13.909a16.709,16.709,0,0,1,3.032.35l.628-.762a15.307,15.307,0,0,0-20.683,0l.639.76a16.576,16.576,0,0,1,3.023-.35l-.137-.91a13.534,13.534,0,0,0-1.585.176" transform="translate(-189.682 -293.186)" fill="#e5a300"/>
      <path id="Tracciato_7" data-name="Tracciato 7" d="M267.739,40.474a.384.384,0,1,1,.383.381.383.383,0,0,1-.383-.381" transform="translate(-236.357 -35.392)" fill="#e5a300"/>
      <path id="Tracciato_8" data-name="Tracciato 8" d="M285.868,38.865a.382.382,0,1,1,.381.381.381.381,0,0,1-.381-.381" transform="translate(-252.361 -33.972)" fill="#e5a300"/>
      <path id="Tracciato_9" data-name="Tracciato 9" d="M303.92,40.8a.383.383,0,1,1,.385.383.383.383,0,0,1-.385-.383" transform="translate(-268.297 -35.682)" fill="#e5a300"/>
      <path id="Tracciato_10" data-name="Tracciato 10" d="M286.572,46.988a.343.343,0,0,1,.3-.176.349.349,0,0,1,.306.176" transform="translate(-252.983 -41.325)" fill="none" stroke="#e5a300" stroke-miterlimit="3.864" stroke-width="0.704"/>
      <path id="Tracciato_11" data-name="Tracciato 11" d="M272.3,47.063l.269,1.348a8.106,8.106,0,0,1,3.413-.015l.26-1.334a.337.337,0,0,0-.255-.119.362.362,0,0,0-.28.143l-.321.392a.35.35,0,0,1-.275.126.336.336,0,0,1-.3-.174l-.234-.458a.349.349,0,0,0-.612.007l-.238.456a.352.352,0,0,1-.573.039l-.321-.4a.345.345,0,0,0-.275-.145.351.351,0,0,0-.258.128" transform="translate(-240.385 -41.311)" fill="#e5a300"/>
      <path id="Tracciato_12" data-name="Tracciato 12" d="M300.621,291.963a2,2,0,0,1-.324-.956.013.013,0,0,1,0-.013.327.327,0,1,1,.654,0,2.034,2.034,0,0,1-.33.969" transform="translate(-265.097 -256.597)" fill="#d2072a"/>
      <path id="Tracciato_13" data-name="Tracciato 13" d="M300.621,291.963a2,2,0,0,1-.324-.956.013.013,0,0,1,0-.013.327.327,0,1,1,.654,0A2.034,2.034,0,0,1,300.621,291.963Z" transform="translate(-265.097 -256.597)" fill="none" stroke="#e5a300" stroke-miterlimit="3.864" stroke-width="2.849"/>
      <path id="Tracciato_14" data-name="Tracciato 14" d="M294.507,276.774a1.968,1.968,0,0,1-.324-.954V275.8a.323.323,0,0,1,.324-.328.328.328,0,0,1,.328.328,2.066,2.066,0,0,1-.328.971" transform="translate(-259.702 -243.186)" fill="#d2072a"/>
      <path id="Tracciato_15" data-name="Tracciato 15" d="M294.507,276.774a1.968,1.968,0,0,1-.324-.954V275.8a.323.323,0,0,1,.324-.328.328.328,0,0,1,.328.328A2.066,2.066,0,0,1,294.507,276.774Z" transform="translate(-259.702 -243.186)" fill="none" stroke="#e5a300" stroke-miterlimit="3.864" stroke-width="2.849"/>
      <path id="Tracciato_16" data-name="Tracciato 16" d="M306.837,276.774a2.026,2.026,0,0,0,.326-.954.043.043,0,0,0,0-.016.325.325,0,1,0-.65,0,2.083,2.083,0,0,0,.324.971" transform="translate(-270.586 -243.186)" fill="#d2072a"/>
      <path id="Tracciato_17" data-name="Tracciato 17" d="M306.837,276.774a2.026,2.026,0,0,0,.326-.954.043.043,0,0,0,0-.016.325.325,0,1,0-.65,0A2.083,2.083,0,0,0,306.837,276.774Z" transform="translate(-270.586 -243.186)" fill="none" stroke="#e5a300" stroke-miterlimit="3.864" stroke-width="2.849"/>
      <path id="Tracciato_18" data-name="Tracciato 18" d="M300.591,262.114a2.056,2.056,0,0,1-.328-.958v-.015a.327.327,0,0,1,.654,0,2.127,2.127,0,0,1-.326.973" transform="translate(-265.069 -230.245)" fill="#d2072a"/>
      <path id="Tracciato_19" data-name="Tracciato 19" d="M300.591,262.114a2.056,2.056,0,0,1-.328-.958v-.015a.327.327,0,0,1,.654,0A2.127,2.127,0,0,1,300.591,262.114Z" transform="translate(-265.069 -230.245)" fill="none" stroke="#e5a300" stroke-miterlimit="3.864" stroke-width="2.849"/>
      <path id="Tracciato_20" data-name="Tracciato 20" d="M287.724,261.582a2.08,2.08,0,0,1-.324-.96v-.011a.326.326,0,1,1,.652,0,2.065,2.065,0,0,1-.328.971" transform="translate(-253.714 -229.775)" fill="#d2072a"/>
      <path id="Tracciato_21" data-name="Tracciato 21" d="M287.724,261.582a2.08,2.08,0,0,1-.324-.96v-.011a.326.326,0,1,1,.652,0A2.065,2.065,0,0,1,287.724,261.582Z" transform="translate(-253.714 -229.775)" fill="none" stroke="#e5a300" stroke-miterlimit="3.864" stroke-width="2.849"/>
      <path id="Tracciato_22" data-name="Tracciato 22" d="M313.578,261.582a1.982,1.982,0,0,0,.326-.96v-.011a.325.325,0,0,0-.326-.328.329.329,0,0,0-.328.328,2.105,2.105,0,0,0,.328.971" transform="translate(-276.534 -229.775)" fill="#d2072a"/>
      <path id="Tracciato_23" data-name="Tracciato 23" d="M313.578,261.582a1.982,1.982,0,0,0,.326-.96v-.011a.325.325,0,0,0-.326-.328.329.329,0,0,0-.328.328A2.105,2.105,0,0,0,313.578,261.582Z" transform="translate(-276.534 -229.775)" fill="none" stroke="#e5a300" stroke-miterlimit="3.864" stroke-width="2.849"/>
      <path id="Tracciato_24" data-name="Tracciato 24" d="M294.849,247.11a2.011,2.011,0,0,1-.322-.956v-.017a.324.324,0,0,1,.322-.326.328.328,0,0,1,.33.326,2.049,2.049,0,0,1-.33.973" transform="translate(-260.005 -216.999)" fill="#d2072a"/>
      <path id="Tracciato_25" data-name="Tracciato 25" d="M294.849,247.11a2.011,2.011,0,0,1-.322-.956v-.017a.324.324,0,0,1,.322-.326.328.328,0,0,1,.33.326A2.049,2.049,0,0,1,294.849,247.11Z" transform="translate(-260.005 -216.999)" fill="none" stroke="#e5a300" stroke-miterlimit="3.864" stroke-width="2.849"/>
      <path id="Tracciato_26" data-name="Tracciato 26" d="M282.617,246.551a2.02,2.02,0,0,1-.324-.958.055.055,0,0,1,0-.016.327.327,0,1,1,.654,0,2.119,2.119,0,0,1-.326.974" transform="translate(-249.202 -216.503)" fill="#d2072a"/>
      <path id="Tracciato_27" data-name="Tracciato 27" d="M282.617,246.551a2.02,2.02,0,0,1-.324-.958.055.055,0,0,1,0-.016.327.327,0,1,1,.654,0A2.119,2.119,0,0,1,282.617,246.551Z" transform="translate(-249.202 -216.503)" fill="none" stroke="#e5a300" stroke-miterlimit="3.864" stroke-width="2.849"/>
      <path id="Tracciato_28" data-name="Tracciato 28" d="M306.48,247.11a2.034,2.034,0,0,0,.326-.956v-.017a.326.326,0,1,0-.652,0,2.063,2.063,0,0,0,.326.973" transform="translate(-270.269 -216.999)" fill="#d2072a"/>
      <path id="Tracciato_29" data-name="Tracciato 29" d="M306.48,247.11a2.034,2.034,0,0,0,.326-.956v-.017a.326.326,0,1,0-.652,0A2.063,2.063,0,0,0,306.48,247.11Z" transform="translate(-270.269 -216.999)" fill="none" stroke="#e5a300" stroke-miterlimit="3.864" stroke-width="2.849"/>
      <path id="Tracciato_30" data-name="Tracciato 30" d="M318.689,246.551a2.081,2.081,0,0,0,.324-.958v-.016a.326.326,0,1,0-.652,0,2.08,2.08,0,0,0,.328.974" transform="translate(-281.046 -216.503)" fill="#d2072a"/>
      <path id="Tracciato_31" data-name="Tracciato 31" d="M318.689,246.551a2.081,2.081,0,0,0,.324-.958v-.016a.326.326,0,1,0-.652,0A2.08,2.08,0,0,0,318.689,246.551Z" transform="translate(-281.046 -216.503)" fill="none" stroke="#e5a300" stroke-miterlimit="3.864" stroke-width="2.849"/>
      <path id="Tracciato_32" data-name="Tracciato 32" d="M300.77,231.765a2.029,2.029,0,0,1-.326-.96.038.038,0,0,1,0-.015.327.327,0,0,1,.654,0,2.072,2.072,0,0,1-.328.974" transform="translate(-265.228 -203.451)" fill="#d2072a"/>
      <path id="Tracciato_33" data-name="Tracciato 33" d="M300.77,231.765a2.029,2.029,0,0,1-.326-.96.038.038,0,0,1,0-.015.327.327,0,0,1,.654,0A2.072,2.072,0,0,1,300.77,231.765Z" transform="translate(-265.228 -203.451)" fill="none" stroke="#e5a300" stroke-miterlimit="3.864" stroke-width="2.849"/>
      <path id="Tracciato_34" data-name="Tracciato 34" d="M285.922,231.23a2.014,2.014,0,0,1-.326-.954.05.05,0,0,1,0-.017.325.325,0,1,1,.65,0,2.044,2.044,0,0,1-.324.971" transform="translate(-252.121 -202.982)" fill="#d2072a"/>
      <path id="Tracciato_35" data-name="Tracciato 35" d="M285.922,231.23a2.014,2.014,0,0,1-.326-.954.05.05,0,0,1,0-.017.325.325,0,1,1,.65,0A2.044,2.044,0,0,1,285.922,231.23Z" transform="translate(-252.121 -202.982)" fill="none" stroke="#e5a300" stroke-miterlimit="3.864" stroke-width="2.849"/>
      <path id="Tracciato_36" data-name="Tracciato 36" d="M315.393,231.23a2.007,2.007,0,0,0,.321-.954.056.056,0,0,0,.005-.017.328.328,0,0,0-.656,0,2.068,2.068,0,0,0,.33.971" transform="translate(-278.134 -202.982)" fill="#d2072a"/>
      <path id="Tracciato_37" data-name="Tracciato 37" d="M315.393,231.23a2.007,2.007,0,0,0,.321-.954.056.056,0,0,0,.005-.017.328.328,0,0,0-.656,0A2.068,2.068,0,0,0,315.393,231.23Z" transform="translate(-278.134 -202.982)" fill="none" stroke="#e5a300" stroke-miterlimit="3.864" stroke-width="2.849"/>
      <path id="Tracciato_38" data-name="Tracciato 38" d="M294.167,217.072a1.978,1.978,0,0,1-.324-.954s0-.011,0-.015a.325.325,0,1,1,.65,0,2.105,2.105,0,0,1-.326.969" transform="translate(-259.4 -190.482)" fill="#d2072a"/>
      <path id="Tracciato_39" data-name="Tracciato 39" d="M294.167,217.072a1.978,1.978,0,0,1-.324-.954s0-.011,0-.015a.325.325,0,1,1,.65,0A2.105,2.105,0,0,1,294.167,217.072Z" transform="translate(-259.4 -190.482)" fill="none" stroke="#e5a300" stroke-miterlimit="3.864" stroke-width="2.849"/>
      <path id="Tracciato_40" data-name="Tracciato 40" d="M281.3,216.54a2.018,2.018,0,0,1-.326-.954.034.034,0,0,1,0-.015.325.325,0,1,1,.65,0,2.055,2.055,0,0,1-.324.969" transform="translate(-248.037 -190.012)" fill="#d2072a"/>
      <path id="Tracciato_41" data-name="Tracciato 41" d="M281.3,216.54a2.018,2.018,0,0,1-.326-.954.034.034,0,0,1,0-.015.325.325,0,1,1,.65,0A2.055,2.055,0,0,1,281.3,216.54Z" transform="translate(-248.037 -190.012)" fill="none" stroke="#e5a300" stroke-miterlimit="3.864" stroke-width="2.849"/>
      <path id="Tracciato_42" data-name="Tracciato 42" d="M307.121,217.072a2.019,2.019,0,0,0,.326-.954V216.1a.326.326,0,1,0-.652,0,2.023,2.023,0,0,0,.326.969" transform="translate(-270.835 -190.482)" fill="#d2072a"/>
      <path id="Tracciato_43" data-name="Tracciato 43" d="M307.121,217.072a2.019,2.019,0,0,0,.326-.954V216.1a.326.326,0,1,0-.652,0A2.023,2.023,0,0,0,307.121,217.072Z" transform="translate(-270.835 -190.482)" fill="none" stroke="#e5a300" stroke-miterlimit="3.864" stroke-width="2.849"/>
      <path id="Tracciato_44" data-name="Tracciato 44" d="M320,216.54a2,2,0,0,0,.326-.954.034.034,0,0,0,0-.015.325.325,0,1,0-.65,0,2.056,2.056,0,0,0,.324.969" transform="translate(-282.204 -190.012)" fill="#d2072a"/>
      <path id="Tracciato_45" data-name="Tracciato 45" d="M320,216.54a2,2,0,0,0,.326-.954.034.034,0,0,0,0-.015.325.325,0,1,0-.65,0A2.056,2.056,0,0,0,320,216.54Z" transform="translate(-282.204 -190.012)" fill="none" stroke="#e5a300" stroke-miterlimit="3.864" stroke-width="2.849"/>
      <path id="Tracciato_46" data-name="Tracciato 46" d="M300.758,203.006a1.981,1.981,0,0,1-.324-.956v-.017a.324.324,0,0,1,.324-.326.328.328,0,0,1,.328.326,2.092,2.092,0,0,1-.328.973" transform="translate(-265.22 -178.065)" fill="#d2072a"/>
      <path id="Tracciato_47" data-name="Tracciato 47" d="M300.758,203.006a1.981,1.981,0,0,1-.324-.956v-.017a.324.324,0,0,1,.324-.326.328.328,0,0,1,.328.326A2.092,2.092,0,0,1,300.758,203.006Z" transform="translate(-265.22 -178.065)" fill="none" stroke="#e5a300" stroke-miterlimit="3.864" stroke-width="2.849"/>
      <path id="Tracciato_48" data-name="Tracciato 48" d="M287.87,202.475a2,2,0,0,1-.326-.956s0-.009,0-.013a.325.325,0,0,1,.326-.33.33.33,0,0,1,.328.33,2.1,2.1,0,0,1-.328.969" transform="translate(-253.839 -177.596)" fill="#d2072a"/>
      <path id="Tracciato_49" data-name="Tracciato 49" d="M287.87,202.475a2,2,0,0,1-.326-.956s0-.009,0-.013a.325.325,0,0,1,.326-.33.33.33,0,0,1,.328.33A2.1,2.1,0,0,1,287.87,202.475Z" transform="translate(-253.839 -177.596)" fill="none" stroke="#e5a300" stroke-miterlimit="3.864" stroke-width="2.849"/>
      <path id="Tracciato_50" data-name="Tracciato 50" d="M275.662,201.348a2.04,2.04,0,0,1-.324-.958s0-.007,0-.011a.327.327,0,1,1,.654,0,2.08,2.08,0,0,1-.33.969" transform="translate(-243.064 -176.603)" fill="#d2072a"/>
      <path id="Tracciato_51" data-name="Tracciato 51" d="M275.662,201.348a2.04,2.04,0,0,1-.324-.958s0-.007,0-.011a.327.327,0,1,1,.654,0A2.08,2.08,0,0,1,275.662,201.348Z" transform="translate(-243.064 -176.603)" fill="none" stroke="#e5a300" stroke-miterlimit="3.864" stroke-width="2.849"/>
      <path id="Tracciato_52" data-name="Tracciato 52" d="M313.423,202.475a2.033,2.033,0,0,0,.326-.956.1.1,0,0,0,0-.013.329.329,0,1,0-.658,0,2.082,2.082,0,0,0,.33.969" transform="translate(-276.395 -177.596)" fill="#d2072a"/>
      <path id="Tracciato_53" data-name="Tracciato 53" d="M313.423,202.475a2.033,2.033,0,0,0,.326-.956.1.1,0,0,0,0-.013.329.329,0,1,0-.658,0A2.082,2.082,0,0,0,313.423,202.475Z" transform="translate(-276.395 -177.596)" fill="none" stroke="#e5a300" stroke-miterlimit="3.864" stroke-width="2.849"/>
      <path id="Tracciato_54" data-name="Tracciato 54" d="M325.627,201.348a2.021,2.021,0,0,0,.326-.958.062.062,0,0,0,0-.011.328.328,0,0,0-.656,0,2.1,2.1,0,0,0,.328.969" transform="translate(-287.171 -176.603)" fill="#d2072a"/>
      <path id="Tracciato_55" data-name="Tracciato 55" d="M325.627,201.348a2.021,2.021,0,0,0,.326-.958.062.062,0,0,0,0-.011.328.328,0,0,0-.656,0A2.1,2.1,0,0,0,325.627,201.348Z" transform="translate(-287.171 -176.603)" fill="none" stroke="#e5a300" stroke-miterlimit="3.864" stroke-width="2.849"/>
      <path id="Tracciato_56" data-name="Tracciato 56" d="M294.868,187.24a2.027,2.027,0,0,1-.326-.96v-.015a.325.325,0,1,1,.65,0,2.084,2.084,0,0,1-.324.974" transform="translate(-260.019 -164.144)" fill="#d2072a"/>
      <path id="Tracciato_57" data-name="Tracciato 57" d="M294.868,187.24a2.027,2.027,0,0,1-.326-.96v-.015a.325.325,0,1,1,.65,0A2.084,2.084,0,0,1,294.868,187.24Z" transform="translate(-260.019 -164.144)" fill="none" stroke="#e5a300" stroke-miterlimit="3.864" stroke-width="2.849"/>
      <path id="Tracciato_58" data-name="Tracciato 58" d="M281.348,186.737a2.1,2.1,0,0,1-.324-.958v-.016a.326.326,0,0,1,.652,0,2.1,2.1,0,0,1-.328.974" transform="translate(-248.085 -163.703)" fill="#d2072a"/>
      <path id="Tracciato_59" data-name="Tracciato 59" d="M281.348,186.737a2.1,2.1,0,0,1-.324-.958v-.016a.326.326,0,0,1,.652,0A2.1,2.1,0,0,1,281.348,186.737Z" transform="translate(-248.085 -163.703)" fill="none" stroke="#e5a300" stroke-miterlimit="3.864" stroke-width="2.849"/>
      <path id="Tracciato_60" data-name="Tracciato 60" d="M307.824,187.24a2.028,2.028,0,0,0,.324-.96.018.018,0,0,0,0-.015.325.325,0,1,0-.65,0,2.1,2.1,0,0,0,.326.974" transform="translate(-271.456 -164.144)" fill="#d2072a"/>
      <path id="Tracciato_61" data-name="Tracciato 61" d="M307.824,187.24a2.028,2.028,0,0,0,.324-.96.018.018,0,0,0,0-.015.325.325,0,1,0-.65,0A2.1,2.1,0,0,0,307.824,187.24Z" transform="translate(-271.456 -164.144)" fill="none" stroke="#e5a300" stroke-miterlimit="3.864" stroke-width="2.849"/>
      <path id="Tracciato_62" data-name="Tracciato 62" d="M321.33,186.737a2.085,2.085,0,0,0,.328-.958v-.016a.328.328,0,0,0-.656,0,2.08,2.08,0,0,0,.328.974" transform="translate(-283.377 -163.703)" fill="#d2072a"/>
      <path id="Tracciato_63" data-name="Tracciato 63" d="M321.33,186.737a2.085,2.085,0,0,0,.328-.958v-.016a.328.328,0,0,0-.656,0A2.08,2.08,0,0,0,321.33,186.737Z" transform="translate(-283.377 -163.703)" fill="none" stroke="#e5a300" stroke-miterlimit="3.864" stroke-width="2.849"/>
      <path id="Tracciato_64" data-name="Tracciato 64" d="M302.608,172.278a2.061,2.061,0,0,1-.33-.954v-.015a.328.328,0,0,1,.656,0,2.12,2.12,0,0,1-.326.969" transform="translate(-266.848 -150.94)" fill="#d2072a"/>
      <path id="Tracciato_65" data-name="Tracciato 65" d="M302.608,172.278a2.061,2.061,0,0,1-.33-.954v-.015a.328.328,0,0,1,.656,0A2.12,2.12,0,0,1,302.608,172.278Z" transform="translate(-266.848 -150.94)" fill="none" stroke="#e5a300" stroke-miterlimit="3.864" stroke-width="2.849"/>
      <path id="Tracciato_66" data-name="Tracciato 66" d="M289.756,171.72a1.966,1.966,0,0,1-.324-.954v-.016a.326.326,0,1,1,.652,0,2.078,2.078,0,0,1-.328.971" transform="translate(-255.508 -150.444)" fill="#d2072a"/>
      <path id="Tracciato_67" data-name="Tracciato 67" d="M289.756,171.72a1.966,1.966,0,0,1-.324-.954v-.016a.326.326,0,1,1,.652,0A2.078,2.078,0,0,1,289.756,171.72Z" transform="translate(-255.508 -150.444)" fill="none" stroke="#e5a300" stroke-miterlimit="3.864" stroke-width="2.849"/>
      <path id="Tracciato_68" data-name="Tracciato 68" d="M315.564,172.278a2.094,2.094,0,0,0,.322-.954v-.015a.323.323,0,0,0-.322-.328.328.328,0,0,0-.33.328,2.041,2.041,0,0,0,.33.969" transform="translate(-278.285 -150.94)" fill="#d2072a"/>
      <path id="Tracciato_69" data-name="Tracciato 69" d="M315.564,172.278a2.094,2.094,0,0,0,.322-.954v-.015a.323.323,0,0,0-.322-.328.328.328,0,0,0-.33.328A2.041,2.041,0,0,0,315.564,172.278Z" transform="translate(-278.285 -150.94)" fill="none" stroke="#e5a300" stroke-miterlimit="3.864" stroke-width="2.849"/>
      <path id="Tracciato_70" data-name="Tracciato 70" d="M328.425,171.72a1.988,1.988,0,0,0,.326-.954v-.016a.327.327,0,1,0-.654,0,2.123,2.123,0,0,0,.328.971" transform="translate(-289.641 -150.444)" fill="#d2072a"/>
      <path id="Tracciato_71" data-name="Tracciato 71" d="M328.425,171.72a1.988,1.988,0,0,0,.326-.954v-.016a.327.327,0,1,0-.654,0A2.123,2.123,0,0,0,328.425,171.72Z" transform="translate(-289.641 -150.444)" fill="none" stroke="#e5a300" stroke-miterlimit="3.864" stroke-width="2.849"/>
      <path id="Tracciato_72" data-name="Tracciato 72" d="M297.4,157.186a2.1,2.1,0,0,1-.326-.958v-.017a.328.328,0,0,1,.656,0,2.087,2.087,0,0,1-.33.975" transform="translate(-262.254 -137.613)" fill="#d2072a"/>
      <path id="Tracciato_73" data-name="Tracciato 73" d="M297.4,157.186a2.1,2.1,0,0,1-.326-.958v-.017a.328.328,0,0,1,.656,0A2.087,2.087,0,0,1,297.4,157.186Z" transform="translate(-262.254 -137.613)" fill="none" stroke="#e5a300" stroke-miterlimit="3.864" stroke-width="2.849"/>
      <path id="Tracciato_74" data-name="Tracciato 74" d="M310.359,157.186a2.1,2.1,0,0,0,.326-.958v-.017a.327.327,0,1,0-.654,0,2.107,2.107,0,0,0,.328.975" transform="translate(-273.692 -137.613)" fill="#d2072a"/>
      <path id="Tracciato_75" data-name="Tracciato 75" d="M310.359,157.186a2.1,2.1,0,0,0,.326-.958v-.017a.327.327,0,1,0-.654,0A2.107,2.107,0,0,0,310.359,157.186Z" transform="translate(-273.692 -137.613)" fill="none" stroke="#e5a300" stroke-miterlimit="3.864" stroke-width="2.849"/>
      <path id="Tracciato_76" data-name="Tracciato 76" d="M323.22,156.653a2.089,2.089,0,0,0,.326-.956v-.011a.327.327,0,1,0-.654,0,2.07,2.07,0,0,0,.328.967" transform="translate(-285.046 -137.143)" fill="#d2072a"/>
      <path id="Tracciato_77" data-name="Tracciato 77" d="M323.22,156.653a2.089,2.089,0,0,0,.326-.956v-.011a.327.327,0,1,0-.654,0A2.07,2.07,0,0,0,323.22,156.653Z" transform="translate(-285.046 -137.143)" fill="none" stroke="#e5a300" stroke-miterlimit="3.864" stroke-width="2.849"/>
      <path id="Tracciato_78" data-name="Tracciato 78" d="M305.23,141.851a2.038,2.038,0,0,1-.326-.956v-.013a.327.327,0,1,1,.654,0,2.094,2.094,0,0,1-.328.969" transform="translate(-269.166 -124.078)" fill="#d2072a"/>
      <path id="Tracciato_79" data-name="Tracciato 79" d="M305.23,141.851a2.038,2.038,0,0,1-.326-.956v-.013a.327.327,0,1,1,.654,0A2.094,2.094,0,0,1,305.23,141.851Z" transform="translate(-269.166 -124.078)" fill="none" stroke="#e5a300" stroke-miterlimit="3.864" stroke-width="2.849"/>
      <path id="Tracciato_80" data-name="Tracciato 80" d="M318.175,141.851a2.06,2.06,0,0,0,.324-.956v-.013a.327.327,0,0,0-.324-.33.331.331,0,0,0-.33.33,2.055,2.055,0,0,0,.33.969" transform="translate(-280.59 -124.078)" fill="#d2072a"/>
      <path id="Tracciato_81" data-name="Tracciato 81" d="M318.175,141.851a2.06,2.06,0,0,0,.324-.956v-.013a.327.327,0,0,0-.324-.33.331.331,0,0,0-.33.33A2.055,2.055,0,0,0,318.175,141.851Z" transform="translate(-280.59 -124.078)" fill="none" stroke="#e5a300" stroke-miterlimit="3.864" stroke-width="2.849"/>
      <path id="Tracciato_82" data-name="Tracciato 82" d="M313.42,126.2a2.06,2.06,0,0,1-.326-.954v-.015a.328.328,0,1,1,.656,0,2.053,2.053,0,0,1-.33.969" transform="translate(-276.396 -110.267)" fill="#d2072a"/>
      <path id="Tracciato_83" data-name="Tracciato 83" d="M313.42,126.2a2.06,2.06,0,0,1-.326-.954v-.015a.328.328,0,1,1,.656,0A2.053,2.053,0,0,1,313.42,126.2Z" transform="translate(-276.396 -110.267)" fill="none" stroke="#e5a300" stroke-miterlimit="3.864" stroke-width="2.849"/>
      <path id="Tracciato_84" data-name="Tracciato 84" d="M300.684,376.973a2.012,2.012,0,0,1-.324-.958s0-.009,0-.011a.326.326,0,1,1,.652,0,2.1,2.1,0,0,1-.328.969" transform="translate(-265.153 -331.638)" fill="#d2072a"/>
      <path id="Tracciato_85" data-name="Tracciato 85" d="M300.684,376.973a2.012,2.012,0,0,1-.324-.958s0-.009,0-.011a.326.326,0,1,1,.652,0A2.1,2.1,0,0,1,300.684,376.973Z" transform="translate(-265.153 -331.638)" fill="none" stroke="#e5a300" stroke-miterlimit="3.864" stroke-width="2.849"/>
      <path id="Tracciato_86" data-name="Tracciato 86" d="M289.121,376.293a2,2,0,0,1-.326-.953.034.034,0,0,1,0-.02.327.327,0,0,1,.654,0,2.086,2.086,0,0,1-.328.973" transform="translate(-254.943 -331.044)" fill="#d2072a"/>
      <path id="Tracciato_87" data-name="Tracciato 87" d="M289.121,376.293a2,2,0,0,1-.326-.953.034.034,0,0,1,0-.02.327.327,0,0,1,.654,0A2.086,2.086,0,0,1,289.121,376.293Z" transform="translate(-254.943 -331.044)" fill="none" stroke="#e5a300" stroke-miterlimit="3.864" stroke-width="2.849"/>
      <path id="Tracciato_88" data-name="Tracciato 88" d="M312.36,376.293a2.038,2.038,0,0,0,.324-.953v-.02a.327.327,0,0,0-.654,0,2.028,2.028,0,0,0,.33.973" transform="translate(-275.457 -331.044)" fill="#d2072a"/>
      <path id="Tracciato_89" data-name="Tracciato 89" d="M312.36,376.293a2.038,2.038,0,0,0,.324-.953v-.02a.327.327,0,0,0-.654,0A2.028,2.028,0,0,0,312.36,376.293Z" transform="translate(-275.457 -331.044)" fill="none" stroke="#e5a300" stroke-miterlimit="3.864" stroke-width="2.849"/>
      <path id="Tracciato_90" data-name="Tracciato 90" d="M294.917,360.48a2.042,2.042,0,0,1-.328-.953v-.016a.328.328,0,0,1,.656,0,2.065,2.065,0,0,1-.328.969" transform="translate(-260.06 -317.083)" fill="#d2072a"/>
      <path id="Tracciato_91" data-name="Tracciato 91" d="M294.917,360.48a2.042,2.042,0,0,1-.328-.953v-.016a.328.328,0,0,1,.656,0A2.065,2.065,0,0,1,294.917,360.48Z" transform="translate(-260.06 -317.083)" fill="none" stroke="#e5a300" stroke-miterlimit="3.864" stroke-width="2.849"/>
      <path id="Tracciato_92" data-name="Tracciato 92" d="M306.571,360.48a2.019,2.019,0,0,0,.326-.953.1.1,0,0,0,0-.016.326.326,0,1,0-.652,0,2.04,2.04,0,0,0,.324.969" transform="translate(-270.352 -317.083)" fill="#d2072a"/>
      <path id="Tracciato_93" data-name="Tracciato 93" d="M306.571,360.48a2.019,2.019,0,0,0,.326-.953.1.1,0,0,0,0-.016.326.326,0,1,0-.652,0A2.04,2.04,0,0,0,306.571,360.48Z" transform="translate(-270.352 -317.083)" fill="none" stroke="#e5a300" stroke-miterlimit="3.864" stroke-width="2.849"/>
      <path id="Tracciato_94" data-name="Tracciato 94" d="M300.856,343.835a1.978,1.978,0,0,1-.328-.954v-.015a.324.324,0,0,1,.326-.328.328.328,0,0,1,.328.328,2.118,2.118,0,0,1-.326.969" transform="translate(-265.303 -302.389)" fill="#d2072a"/>
      <path id="Tracciato_95" data-name="Tracciato 95" d="M300.856,343.835a1.978,1.978,0,0,1-.328-.954v-.015a.324.324,0,0,1,.326-.328.328.328,0,0,1,.328.328A2.118,2.118,0,0,1,300.856,343.835Z" transform="translate(-265.303 -302.389)" fill="none" stroke="#e5a300" stroke-miterlimit="3.864" stroke-width="2.849"/>
      <path id="Tracciato_96" data-name="Tracciato 96" d="M150.342,326.479c-.269-.321-.295-.432-.5-.639a3.012,3.012,0,0,1,.557.606,7.064,7.064,0,0,1,.52.78,3.286,3.286,0,0,0-.626-1.588,3.93,3.93,0,0,0-1.627-1.057c.3.692.084.993.577,1.564a9.907,9.907,0,0,0,1.513,1.114,1.755,1.755,0,0,1,.385.551,1.357,1.357,0,0,1,.1.295l.07-.011a3.136,3.136,0,0,0-.42-.872c-.3-.4-.416-.6-.544-.744" transform="translate(-131.239 -286.537)" fill="#e5a300"/>
      <path id="Tracciato_97" data-name="Tracciato 97" d="M175.137,342.855c.231-.291.251-.394.429-.584a2.675,2.675,0,0,0-.48.557,6.532,6.532,0,0,0-.44.709,2.979,2.979,0,0,1,.513-1.431,3.653,3.653,0,0,1,1.412-.991c-.249.625-.049.881-.467,1.407a9.5,9.5,0,0,1-1.312,1.044,1.5,1.5,0,0,0-.326.5,1.147,1.147,0,0,0-.077.262l-.062,0a2.933,2.933,0,0,1,.35-.791c.253-.368.352-.538.46-.676" transform="translate(-153.894 -301.133)" fill="#e5a300"/>
      <path id="Tracciato_98" data-name="Tracciato 98" d="M172.532,332.315c.141-.313.137-.408.256-.621a2.561,2.561,0,0,0-.315.612,5.766,5.766,0,0,0-.238.744,2.633,2.633,0,0,1,.123-1.411,3.373,3.373,0,0,1,1.1-1.229c-.077.621.179.8-.09,1.379-.207.469-.619.734-.986,1.249a5.009,5.009,0,0,0-.291.672l-.046-.011s.084-.306.22-.661c.148-.392.2-.572.267-.724" transform="translate(-151.88 -291.682)" fill="#e5a300"/>
      <path id="Tracciato_99" data-name="Tracciato 99" d="M149.845,345.905c-.328-.3-.374-.407-.619-.6a3.229,3.229,0,0,1,.676.553,7.753,7.753,0,0,1,.661.742,3.526,3.526,0,0,0-.9-1.57,4.244,4.244,0,0,0-1.858-.872c.425.68.242,1.02.846,1.552a10.511,10.511,0,0,0,1.749.947,1.925,1.925,0,0,1,.484.522,1.38,1.38,0,0,1,.147.291l.073-.018a3.451,3.451,0,0,0-.573-.852c-.379-.377-.528-.561-.685-.7" transform="translate(-130.48 -303.823)" fill="#e5a300"/>
      <path id="Tracciato_100" data-name="Tracciato 100" d="M150.595,368.271c-.4-.156-.476-.246-.76-.337a3.123,3.123,0,0,1,.793.289,6.966,6.966,0,0,1,.854.458,3.6,3.6,0,0,0-1.35-1.134,4.192,4.192,0,0,0-1.967-.2c.608.476.566.843,1.293,1.127a10.306,10.306,0,0,0,1.894.313,1.894,1.894,0,0,1,.617.319,1.521,1.521,0,0,1,.233.216l.059-.04a3.605,3.605,0,0,0-.808-.586c-.469-.224-.67-.339-.857-.421" transform="translate(-130.798 -324.269)" fill="#e5a300"/>
      <path id="Tracciato_101" data-name="Tracciato 101" d="M191.465,364.032c.049-.412.007-.526.07-.81a2.844,2.844,0,0,0-.137.813,6.4,6.4,0,0,0-.007.943,3.337,3.337,0,0,1-.363-1.7,3.749,3.749,0,0,1,.81-1.751c.132.755.493.9.392,1.652a9.925,9.925,0,0,1-.678,1.748,1.708,1.708,0,0,0-.016.678,1.168,1.168,0,0,0,.079.3l-.066.026a3.279,3.279,0,0,1-.134-.969c.031-.509.027-.733.051-.931" transform="translate(-168.627 -319.151)" fill="#e5a300"/>
      <path id="Tracciato_102" data-name="Tracciato 102" d="M181.465,362.849c-.06-.352-.123-.429-.15-.676a2.539,2.539,0,0,0,.1.7,5.913,5.913,0,0,0,.233.766,2.823,2.823,0,0,1-.727-1.282,3.263,3.263,0,0,1,.212-1.641c.3.577.636.6.744,1.235a8.117,8.117,0,0,1-.108,1.6,5.4,5.4,0,0,0,.147.74l-.044.015s-.11-.31-.2-.687c-.1-.419-.169-.6-.2-.768" transform="translate(-159.673 -318.434)" fill="#e5a300"/>
      <path id="Tracciato_103" data-name="Tracciato 103" d="M157.359,385.183c-.463-.121-.566-.207-.9-.267a3.79,3.79,0,0,1,.932.205,8.723,8.723,0,0,1,1.02.381,4.075,4.075,0,0,0-1.68-1.053,4.725,4.725,0,0,0-2.222.062c.762.441.771.854,1.619,1.062a12.5,12.5,0,0,0,2.156.066,2.089,2.089,0,0,1,.738.26,1.48,1.48,0,0,1,.289.207l.059-.059a3.894,3.894,0,0,0-.991-.528c-.557-.178-.793-.278-1.02-.337" transform="translate(-136.399 -339.288)" fill="#e5a300"/>
      <path id="Tracciato_104" data-name="Tracciato 104" d="M397.383,389.409a.861.861,0,0,1-.2-.183c-.161-.207-.192-.376-.079-.414s.148.046.18.015,0-.033-.084-.2c-.037-.081-.024-.2.07-.2s.128.072.19.018c.094-.084-.207-.291.013-.419.084-.048.125.035.192,0,.15-.1.046-.449.267-.4.189.04.029.284.159.323.055.015.079-.048.17.027.189.156-.2.234-.11.346.038.048.084-.005.159.04.11.068.088.242-.2.4-.1.055-.121.1-.1.128.031.059.084.028.143.072.136.1.029.427-.65.487a3.989,3.989,0,0,0,.331-1.235,10.359,10.359,0,0,1-.7,1.922l-.092-.017a3.986,3.986,0,0,0,.339-.692" transform="translate(-350.499 -342.177)" fill="#e5a300"/>
      <path id="Tracciato_105" data-name="Tracciato 105" d="M404.989,397.875a1.685,1.685,0,0,0,.161.39c.19.319.4.458.52.337s.029-.216.09-.234.046.018.231.223c.086.1.265.148.322.037.062-.135-.026-.2.084-.251.172-.068.282.43.586.229.117-.077.026-.172.123-.233.218-.134.647.2.716-.106.055-.255-.381-.2-.356-.383.011-.077.11-.073.059-.231-.1-.324-.434.114-.54-.064-.042-.075.06-.1.037-.225-.026-.176-.284-.247-.665.018-.135.093-.205.093-.236.055-.064-.073.009-.123-.016-.227-.059-.222-.572-.278-1.055.533a7.74,7.74,0,0,1,1.905.306c.438.114-2.081-.473-2.662-.121l-.084.112a1.877,1.877,0,0,1,.78-.165" transform="translate(-356.832 -350.527)" fill="#e5a300"/>
      <path id="Tracciato_106" data-name="Tracciato 106" d="M423.411,334.352a1.086,1.086,0,0,1-.282.046c-.269-.005-.432-.086-.388-.19s.13-.088.125-.132-.026-.018-.218-.057c-.1-.016-.185-.1-.128-.174s.143-.055.137-.135c-.009-.117-.374-.015-.337-.259.015-.1.106-.075.115-.15.015-.174-.344-.306-.161-.449.152-.117.251.15.366.073.048-.031.015-.088.132-.112.245-.048.066.289.22.291.062,0,.044-.066.13-.1.125-.044.258.077.205.388-.02.112,0,.148.037.156.068.013.079-.048.156-.068.163-.039.366.236-.015.791a4.1,4.1,0,0,0-.808-1,11,11,0,0,1,1.143,1.689l-.073.06a3.983,3.983,0,0,0-.355-.676" transform="translate(-372.732 -293.8)" fill="#e5a300"/>
      <path id="Tracciato_107" data-name="Tracciato 107" d="M417.426,363.492a.989.989,0,0,1-.278-.11c-.242-.145-.343-.306-.242-.383s.169-.013.187-.053-.013-.035-.165-.172c-.075-.064-.106-.194-.015-.229s.158.026.2-.049c.059-.119-.328-.214-.159-.423.068-.081.141-.011.187-.079.112-.147-.132-.462.112-.5.2-.029.137.275.286.266.062-.007.062-.075.18-.035.256.088-.1.3.033.388.057.031.081-.038.178-.02.134.026.185.211-.037.465-.082.1-.084.143-.053.167.055.048.1,0,.174.022.172.048.2.414-.456.727a4.359,4.359,0,0,0-.167-1.359,11.72,11.72,0,0,1,.081,2.176l-.1.015a4.058,4.058,0,0,0,.059-.815" transform="translate(-367.996 -319.122)" fill="#e5a300"/>
      <path id="Tracciato_108" data-name="Tracciato 108" d="M426.5,366.8a1.913,1.913,0,0,0,.308.313c.311.236.579.29.639.128s-.06-.213-.009-.253.048,0,.313.128c.121.059.31.044.317-.086.011-.152-.1-.183-.018-.266.135-.132.441.3.65,0,.082-.117-.04-.172.024-.264.154-.207.7-.042.639-.365-.049-.262-.441-.049-.489-.238-.022-.075.075-.108-.038-.24-.233-.275-.374.265-.544.134-.075-.053.011-.115-.057-.223-.1-.158-.374-.136-.626.255-.094.143-.156.167-.205.143-.088-.049-.038-.121-.108-.211-.145-.192-.658-.057-.79.9a7.835,7.835,0,0,1,1.942-.41c.465-.053-2.178.317-2.59.865l-.035.134a1.925,1.925,0,0,1,.678-.442" transform="translate(-375.912 -322.642)" fill="#e5a300"/>
      <path id="Tracciato_109" data-name="Tracciato 109" d="M300.762,439.044c1.418.661,2.394,1.8,2.143,3.154l.529-.278c.132-1.411-.943-2.466-2.6-3.142Z" transform="translate(-265.51 -387.349)" fill="#e5a300"/>
      <path id="Tracciato_110" data-name="Tracciato 110" d="M285.128,439.044c-1.418.661-2.394,1.8-2.143,3.154l-.528-.278c-.132-1.411.94-2.466,2.6-3.142Z" transform="translate(-249.34 -387.349)" fill="#e5a300"/>
      <path id="Tracciato_111" data-name="Tracciato 111" d="M298.824,434.342c0-.363.222-.658.5-.658s.495.295.495.658-.222.658-.495.658-.5-.293-.5-.658" transform="translate(-263.799 -382.852)" fill="#e5a300"/>
      <path id="Tracciato_112" data-name="Tracciato 112" d="M298.824,434.342c0-.363.222-.658.5-.658s.495.295.495.658-.222.658-.495.658S298.824,434.706,298.824,434.342Z" transform="translate(-263.799 -382.852)" fill="none" stroke="#e5a300" stroke-miterlimit="3.864" stroke-width="2.513"/>
      <path id="Tracciato_113" data-name="Tracciato 113" d="M203.033,424c-.48.093-.612.062-.942.154a3.868,3.868,0,0,1,.938-.227,10.137,10.137,0,0,1,1.11-.1,4.35,4.35,0,0,0-2.032-.214,4.69,4.69,0,0,0-1.978,1.026c.9.066,1.11.434,1.98.253a12.122,12.122,0,0,0,1.98-.883,2.218,2.218,0,0,1,.793-.084,1.684,1.684,0,0,1,.361.055l.029-.073a4.171,4.171,0,0,0-1.154-.046c-.592.081-.856.1-1.086.141" transform="translate(-176.673 -373.916)" fill="#e5a300"/>
      <path id="Tracciato_114" data-name="Tracciato 114" d="M227.96,409.989c-.291-.246-.4-.269-.59-.456a2.958,2.958,0,0,0,.557.509,6.879,6.879,0,0,0,.724.476,3.123,3.123,0,0,1-1.475-.586,3.5,3.5,0,0,1-.962-1.473c.641.28.931.09,1.454.54a9.227,9.227,0,0,1,1.017,1.374,6.139,6.139,0,0,0,.63.513l-.027.038s-.3-.181-.639-.434c-.372-.276-.548-.383-.689-.5" transform="translate(-199.699 -360.583)" fill="#e5a300"/>
      <path id="Tracciato_115" data-name="Tracciato 115" d="M218.294,430.833c-.451.152-.584.137-.89.267a3.6,3.6,0,0,1,.879-.339,9.038,9.038,0,0,1,1.059-.238,4.253,4.253,0,0,0-2,.051,4.392,4.392,0,0,0-1.77,1.253c.881-.055,1.138.278,1.958-.009a12.021,12.021,0,0,0,1.793-1.117,2.166,2.166,0,0,1,.751-.189,1.7,1.7,0,0,1,.365.011l.016-.075a4.1,4.1,0,0,0-1.128.106c-.559.156-.815.2-1.031.278" transform="translate(-190.303 -379.979)" fill="#e5a300"/>
      <path id="Tracciato_116" data-name="Tracciato 116" d="M166.969,401.254c-.511-.011-.643-.075-1-.053a3.866,3.866,0,0,1,1.011-.022,9.775,9.775,0,0,1,1.152.147,4.439,4.439,0,0,0-2.013-.674,4.985,4.985,0,0,0-2.264.6c.9.269,1.02.691,1.949.7a13.013,13.013,0,0,0,2.237-.463,2.373,2.373,0,0,1,.83.092,1.7,1.7,0,0,1,.354.139l.044-.072a4.256,4.256,0,0,0-1.161-.3c-.623-.051-.894-.1-1.138-.1" transform="translate(-144.649 -353.688)" fill="#e5a300"/>
      <path id="Tracciato_117" data-name="Tracciato 117" d="M200.137,388.4c-.236-.348-.343-.41-.484-.667a2.989,2.989,0,0,0,.432.714,7.333,7.333,0,0,0,.623.724,3.431,3.431,0,0,1-1.4-1.062,3.869,3.869,0,0,1-.553-1.872c.6.493.969.372,1.392,1.013a10.322,10.322,0,0,1,.647,1.781,7.082,7.082,0,0,0,.513.735l-.042.031s-.264-.286-.546-.656c-.313-.406-.471-.572-.581-.74" transform="translate(-175.458 -340.964)" fill="#e5a300"/>
      <path id="Tracciato_118" data-name="Tracciato 118" d="M182.569,414.9c-.509.06-.647.015-1,.079a4.1,4.1,0,0,1,1-.154,10.255,10.255,0,0,1,1.161,0,4.488,4.488,0,0,0-2.094-.4,4.855,4.855,0,0,0-2.154.9c.931.143,1.114.546,2.033.431a12.628,12.628,0,0,0,2.149-.747,2.281,2.281,0,0,1,.832-.022,1.887,1.887,0,0,1,.372.09l.037-.075a4.415,4.415,0,0,0-1.2-.141c-.621.031-.9.024-1.139.048" transform="translate(-158.447 -365.831)" fill="#e5a300"/>
      <path id="Tracciato_119" data-name="Tracciato 119" d="M238.391,434.549c-.4.147-.526.136-.793.258a3.179,3.179,0,0,1,.782-.321,8.4,8.4,0,0,1,.943-.233,3.8,3.8,0,0,0-1.792.081,3.97,3.97,0,0,0-1.566,1.147c.788-.06,1.026.236,1.753-.038a10.149,10.149,0,0,0,1.59-1.024,1.912,1.912,0,0,1,.676-.178,1.457,1.457,0,0,1,.324,0l.011-.07a3.624,3.624,0,0,0-1.008.114c-.5.147-.725.194-.921.262" transform="translate(-208.308 -383.283)" fill="#e5a300"/>
      <path id="Tracciato_120" data-name="Tracciato 120" d="M266.326,414.579c-.269-.269-.372-.308-.542-.509a2.635,2.635,0,0,0,.506.557,6.95,6.95,0,0,0,.674.544,2.751,2.751,0,0,1-2.226-2.274c.619.35.931.2,1.412.7a8.662,8.662,0,0,1,.87,1.442,1.742,1.742,0,0,0,.476.4,1.274,1.274,0,0,0,.266.117l-.018.059a3.167,3.167,0,0,1-.777-.472c-.346-.308-.513-.431-.641-.562" transform="translate(-233.708 -364.501)" fill="#e5a300"/>
      <path id="Tracciato_121" data-name="Tracciato 121" d="M255.819,420.772c-.295-.176-.39-.185-.588-.326a2.524,2.524,0,0,0,.568.374,6.288,6.288,0,0,0,.711.33,2.919,2.919,0,0,1-1.394-.322,3.314,3.314,0,0,1-1.068-1.178c.61.161.837-.046,1.368.284.442.262.647.674,1.1,1.083a5.266,5.266,0,0,0,.63.368l-.018.038s-.29-.123-.628-.3c-.372-.192-.546-.266-.685-.352" transform="translate(-224.271 -370.462)" fill="#e5a300"/>
      <path id="Tracciato_122" data-name="Tracciato 122" d="M254.513,437c-.348.178-.458.183-.692.328a2.946,2.946,0,0,1,.672-.385,7.256,7.256,0,0,1,.832-.326,3.521,3.521,0,0,0-1.629.29,3.627,3.627,0,0,0-1.273,1.24c.713-.148.967.09,1.6-.249.52-.264.771-.707,1.313-1.134a1.782,1.782,0,0,1,.592-.244,1.506,1.506,0,0,1,.3-.038v-.062a3.4,3.4,0,0,0-.9.227c-.438.192-.639.266-.8.354" transform="translate(-222.836 -385.266)" fill="#e5a300"/>
      <path id="Tracciato_123" data-name="Tracciato 123" d="M293.995,321.817a5.569,5.569,0,0,0-.5-2.473l-.147-.218a7.073,7.073,0,0,1,.5,2.674c0,4.867-4.409,8.949-10.561,10.465a22.157,22.157,0,0,1-3.521.491c-2.054.1-4.591,1.257-4.755,3.09l.517.273c0-1.779,2.176-2.982,4.23-3.081a21.729,21.729,0,0,0,3.638-.524c6.135-1.52,10.617-5.693,10.6-10.7" transform="translate(-242.772 -281.721)" fill="#e5a300"/>
      <path id="Tracciato_124" data-name="Tracciato 124" d="M419.535,300.868a1.124,1.124,0,0,1-.315.044c-.3-.013-.482-.11-.429-.235s.154-.1.147-.146-.024-.027-.244-.075c-.1-.027-.2-.126-.13-.207s.159-.06.159-.15c0-.145-.418-.035-.364-.315.02-.114.124-.09.135-.174.029-.2-.366-.368-.156-.528.176-.136.271.183.4.1.057-.037.022-.1.154-.126.28-.053.062.343.231.348.07,0,.057-.083.154-.114.139-.044.282.1.207.463-.026.128-.005.176.037.185.075.017.088-.053.176-.075.185-.044.392.29-.059.923a4.544,4.544,0,0,0-.852-1.192,15.8,15.8,0,0,1,1.182,2.028l-.072.022a4.728,4.728,0,0,0-.364-.773" transform="translate(-369.25 -263.997)" fill="#e5a300"/>
      <path id="Tracciato_125" data-name="Tracciato 125" d="M169.121,304.674c.013,4.858,4.417,8.93,10.562,10.443a22.136,22.136,0,0,0,3.519.493c2.054.1,4.591,1.256,4.757,3.09l-.518.271c0-1.777-2.176-2.982-4.23-3.081a21.761,21.761,0,0,1-3.638-.522c-6.137-1.521-10.628-5.692-10.608-10.694a8.731,8.731,0,0,1,.1-.962,4.674,4.674,0,0,1,.231-.85c.038-.082.154-.339.313-.623.213-.377.284-.551.377-.7.2-.3.2-.4.365-.6a2.4,2.4,0,0,0-.431.588,5.223,5.223,0,0,0-.346.718,2.1,2.1,0,0,1,.247-1.377,3.91,3.91,0,0,1,1.444-1.154c-.137.606.17.8-.2,1.352-.291.451-.819.691-1.308,1.176a3.545,3.545,0,0,0-.33.626,5.19,5.19,0,0,0-.238.834,4.135,4.135,0,0,0-.066.971" transform="translate(-149.161 -264.585)" fill="#e5a300"/>
      <path id="Tracciato_126" data-name="Tracciato 126" d="M204.3,319.662l-1.4-1.676a17.238,17.238,0,0,1,2.12-1.645.707.707,0,0,0,.462.169.747.747,0,0,0,.267-.051.326.326,0,0,1-.011-.566,17.491,17.491,0,0,1,17.813-.006.339.339,0,0,1,.167.288.32.32,0,0,1-.174.284.779.779,0,0,0,.267.051.73.73,0,0,0,.465-.169,17.593,17.593,0,0,1,2.125,1.638l-1.414,1.682a15.307,15.307,0,0,0-20.683,0" transform="translate(-179.114 -276.712)" fill="#fff"/>
      <path id="Tracciato_127" data-name="Tracciato 127" d="M253,325.69a1.259,1.259,0,0,0,.529-.071c.376-.13.443-.4.372-.6-.141-.408-.7-.238-.756-.414-.022-.059.022-.117.1-.143a.561.561,0,0,1,.421.062l-.13-.381a.767.767,0,0,0-.5.006.47.47,0,0,0-.355.6c.141.42.683.26.736.414.02.055-.015.115-.108.147a.716.716,0,0,1-.438-.007Z" transform="translate(-223.043 -286.112)" fill="#1d1d1b"/>
      <path id="Tracciato_128" data-name="Tracciato 128" d="M318.466,417.785a1.634,1.634,0,0,1-.161-.348c-.093-.324-.048-.553.108-.542s.167.123.218.1.018-.037,0-.286c-.011-.115.068-.26.183-.222.132.049.119.15.225.11.157-.06-.114-.451.222-.507.128-.02.137.1.238.073.233-.048.28-.529.537-.372.209.134-.112.363.033.463.055.046.123-.016.192.114.158.279-.353.2-.306.383.027.075.106.024.179.117.1.134-.015.335-.441.4-.152.022-.2.062-.191.11.009.088.086.07.139.154.119.181-.178.533-1.048.3a6.289,6.289,0,0,0,1.031-1.368c.205-.344-1.033,1.645-1.7,1.713l.068-.106s.179,0,.476-.286" transform="translate(-280.658 -367.024)" fill="#e5a300"/>
      <path id="Tracciato_129" data-name="Tracciato 129" d="M332.878,422.073a.841.841,0,0,1-.051-.257c0-.247.077-.4.189-.366s.093.115.135.106.02-.026.059-.207c.015-.084.1-.17.176-.124.088.059.059.132.141.117.125-.011.009-.343.262-.317.1.005.079.09.154.093.178.007.31-.328.46-.168.126.13-.15.238-.07.339.031.042.092.011.119.119.055.225-.3.071-.3.214,0,.055.07.04.1.117.046.114-.079.238-.4.207-.113-.011-.154.011-.156.044-.013.062.046.07.068.137.048.152-.234.35-.813.029a4.324,4.324,0,0,0,1.015-.8,11.911,11.911,0,0,1-1.718,1.143l-.062-.066a4.4,4.4,0,0,0,.687-.363" transform="translate(-293.255 -371.573)" fill="#e5a300"/>
      <path id="Tracciato_130" data-name="Tracciato 130" d="M321.492,436.54a1.389,1.389,0,0,0-.048.361c.009.321.123.515.264.465s.117-.154.176-.145.029.031.086.262c.026.112.143.22.238.15s.068-.161.178-.158c.167.015.031.443.361.41.126-.016.1-.128.2-.134.231-.018.421.41.612.2.156-.178-.211-.3-.108-.436.038-.055.117-.015.148-.156.062-.295-.4-.084-.4-.264-.006-.073.09-.055.128-.156.053-.146-.113-.306-.535-.251-.15.022-.2-.006-.213-.048-.016-.082.062-.092.086-.183.053-.192-.328-.436-1.072,0a6.666,6.666,0,0,1,1.376.984c.3.255-1.443-1.182-2.063-1.136l-.114.053a1.724,1.724,0,0,1,.694.181" transform="translate(-283.197 -385.085)" fill="#e5a300"/>
      <path id="Tracciato_131" data-name="Tracciato 131" d="M339.4,433.068a1.631,1.631,0,0,0-.051.4c.009.359.132.575.291.52s.124-.174.189-.161.031.035.094.291c.027.123.154.244.258.17.121-.086.077-.185.194-.176.181.015.035.495.4.451.137-.015.106-.136.216-.145.256-.018.463.46.669.22.174-.194-.229-.335-.117-.487.046-.062.132-.015.161-.17.07-.328-.432-.1-.434-.3,0-.082.1-.06.137-.172.062-.165-.123-.341-.579-.278-.165.022-.222-.009-.231-.057-.022-.09.066-.1.093-.2.057-.216-.361-.491-1.172,0a7.34,7.34,0,0,1,1.5,1.094c.326.291-1.574-1.313-2.246-1.264l-.125.057a1.882,1.882,0,0,1,.755.205" transform="translate(-298.953 -381.985)" fill="#e5a300"/>
      <path id="Tracciato_132" data-name="Tracciato 132" d="M352.153,408.6a1.646,1.646,0,0,1-.242-.317c-.163-.3-.17-.539-.009-.561s.189.09.236.051.009-.042-.062-.286c-.038-.115.009-.275.13-.255.145.016.156.121.251.062.143-.1-.213-.429.11-.551.121-.051.158.066.253.024.222-.1.159-.588.451-.476.238.086-.029.379.137.454.07.031.119-.042.22.073.22.244-.313.269-.22.441.038.068.114.005.205.084.128.11.057.339-.352.489-.15.048-.181.1-.168.147.031.084.106.055.178.128.154.156-.06.566-.976.513a6.38,6.38,0,0,0,.716-1.574c.132-.386-.66,1.848-1.313,2.055l.042-.123s.179-.042.414-.381" transform="translate(-310.474 -358.652)" fill="#e5a300"/>
      <path id="Tracciato_133" data-name="Tracciato 133" d="M355.023,427.449a1.731,1.731,0,0,0,.04.416c.09.355.264.549.408.462s.086-.2.152-.2.038.024.156.271c.059.117.213.213.3.119s.033-.2.15-.214c.187-.024.145.484.5.37.137-.042.081-.157.189-.19.247-.071.562.368.716.086.124-.229-.3-.29-.229-.462.033-.071.128-.042.125-.207-.007-.339-.451,0-.5-.205-.02-.081.086-.079.1-.2.022-.174-.2-.313-.647-.159-.156.055-.222.038-.244-.009-.04-.088.044-.114.051-.22.009-.229-.467-.419-1.171.236a7.33,7.33,0,0,1,1.746.789c.388.222-1.865-1-2.528-.811l-.11.084a1.945,1.945,0,0,1,.8.048" transform="translate(-312.709 -376.853)" fill="#e5a300"/>
      <path id="Tracciato_134" data-name="Tracciato 134" d="M171.012,316.432c.306-.229.354-.322.581-.465a2.942,2.942,0,0,0-.628.427,6.876,6.876,0,0,0-.628.579,2.987,2.987,0,0,1,.89-1.257,3.935,3.935,0,0,1,1.687-.623c-.414.539-.275.837-.841,1.244a10.2,10.2,0,0,1-1.6.69,1.81,1.81,0,0,0-.46.407,1.094,1.094,0,0,0-.145.236l-.062-.022a2.87,2.87,0,0,1,.557-.674c.354-.293.5-.436.645-.542" transform="translate(-149.906 -278.161)" fill="#e5a300"/>
      <path id="Tracciato_135" data-name="Tracciato 135" d="M366.672,408.694a.969.969,0,0,1-.125-.238c-.075-.244-.044-.416.077-.414s.128.092.165.07.011-.029,0-.216c-.009-.088.051-.2.135-.169.1.035.093.11.17.079.123-.048-.092-.342.165-.388.1-.018.1.073.18.055.174-.04.205-.407.4-.291.159.1-.081.276.031.355.046.031.093-.015.15.081.121.205-.269.157-.225.291.015.057.077.022.136.09.077.1-.007.253-.33.308-.117.018-.148.049-.143.084.009.066.068.057.108.119.092.135-.128.4-.788.244a4.144,4.144,0,0,0,.758-1.052,12.312,12.312,0,0,1-1.346,1.577l-.082-.046a4.057,4.057,0,0,0,.566-.539" transform="translate(-323.195 -359.435)" fill="#e5a300"/>
      <path id="Tracciato_136" data-name="Tracciato 136" d="M370.922,419.8a1.81,1.81,0,0,0,.064.412c.11.348.286.531.429.438s.077-.2.139-.207c.079-.005.042.026.176.268.062.113.222.2.3.1s.022-.2.139-.222c.187-.031.174.48.518.346.136-.049.068-.161.176-.2.244-.082.581.337.72.051.114-.236-.321-.273-.253-.449.029-.071.123-.051.114-.212-.024-.341-.452.015-.513-.18-.024-.082.082-.088.092-.212.011-.174-.22-.3-.652-.123-.156.062-.224.046-.244,0-.044-.084.038-.121.038-.227-.007-.225-.493-.39-1.158.3a7.561,7.561,0,0,1,1.786.7c.4.2-1.918-.9-2.568-.685l-.106.09a1.95,1.95,0,0,1,.8.011" transform="translate(-326.741 -370.051)" fill="#e5a300"/>
      <path id="Tracciato_137" data-name="Tracciato 137" d="M382.115,393.2a1.79,1.79,0,0,1-.335-.222c-.26-.238-.346-.462-.2-.529s.211.026.242-.026-.007-.044-.161-.251c-.07-.1-.081-.262.042-.284.141-.024.187.07.257-.017.1-.134-.346-.341-.086-.555.1-.084.17.013.247-.057.176-.158-.048-.6.264-.592.256.013.1.372.288.392.075.009.1-.079.233,0,.286.165-.2.354-.057.484.059.057.106-.027.218.02.161.062.176.3-.165.568-.119.093-.134.154-.1.192.055.072.117.017.211.066.2.1.137.553-.749.788a6.236,6.236,0,0,0,.143-1.711c-.009-.4.007,1.951-.538,2.348l0-.126s.156-.1.26-.489" transform="translate(-336.791 -344.881)" fill="#e5a300"/>
      <path id="Tracciato_138" data-name="Tracciato 138" d="M389.319,409.153a1.685,1.685,0,0,0,.15.388c.185.32.4.465.515.346s.035-.216.1-.231.046.016.227.224c.086.1.262.158.317.042.07-.134-.017-.205.092-.249.172-.064.273.436.581.238.121-.073.031-.17.13-.229.22-.13.641.214.713-.093.059-.253-.372-.205-.344-.39.013-.075.11-.072.062-.229-.1-.328-.438.1-.54-.075-.044-.073.062-.1.042-.222-.024-.176-.278-.253-.665.007-.137.09-.2.088-.238.049-.062-.075.013-.121-.011-.229-.053-.222-.568-.288-1.068.517a7.7,7.7,0,0,1,1.9.337c.434.119-2.075-.506-2.664-.165l-.084.11a1.912,1.912,0,0,1,.786-.147" transform="translate(-342.993 -360.491)" fill="#e5a300"/>
      <path id="Tracciato_139" data-name="Tracciato 139" d="M404.429,370.432a1.859,1.859,0,0,1-.419-.093c-.35-.13-.526-.315-.418-.436s.216-.059.227-.115c.011-.073-.022-.038-.258-.183-.114-.068-.19-.225-.082-.289.13-.079.211-.007.242-.114.051-.169-.474-.2-.311-.513.066-.121.174-.051.222-.145.106-.22-.3-.57.009-.672.253-.088.253.319.442.273.075-.02.059-.113.229-.09.346.055-.057.421.143.5.082.031.092-.07.222-.07.183,0,.291.231.077.619-.079.137-.07.2-.027.225.086.051.123-.026.236-.017.235.022.363.489-.4,1.05a6.748,6.748,0,0,0-.577-1.718c-.174-.39.817,1.9.451,2.487l-.055-.123s.113-.148.051-.573" transform="translate(-356.097 -324.742)" fill="#e5a300"/>
      <path id="Tracciato_140" data-name="Tracciato 140" d="M416.044,383.356a1.784,1.784,0,0,0,.267.343c.275.264.528.348.6.2s-.031-.214.028-.249.046.006.286.159c.114.075.3.082.326-.046.027-.147-.081-.192.016-.266.148-.112.4.355.641.081.094-.108-.022-.181.055-.26.181-.189.7.038.674-.282-.017-.266-.427-.1-.454-.291-.007-.077.088-.1,0-.242-.192-.3-.4.22-.553.07-.062-.062.031-.114-.024-.229-.075-.165-.348-.176-.652.181-.108.13-.172.145-.216.113-.084-.055-.024-.121-.081-.214-.119-.205-.641-.134-.892.788a7.786,7.786,0,0,1,1.964-.176c.462,0-2.183.055-2.658.546l-.051.128a1.923,1.923,0,0,1,.724-.352" transform="translate(-366.64 -337.429)" fill="#e5a300" fill-rule="evenodd"/>
      <path id="Tracciato_141" data-name="Tracciato 141" d="M415.971,346.182a2.094,2.094,0,0,1-.4.084c-.37.026-.6-.062-.553-.213s.165-.128.15-.185-.04-.024-.3-.053c-.128-.015-.264-.119-.194-.22s.183-.084.167-.191c-.026-.161-.506.015-.489-.308.007-.13.13-.114.135-.214,0-.231-.5-.372-.275-.579.191-.17.359.174.506.06.06-.048.007-.121.161-.163.333-.09.13.377.333.363.086-.007.055-.094.169-.145.167-.07.357.083.33.5-.015.146.022.194.07.2.1.005.1-.07.2-.106.218-.07.528.275.088,1.053a6.539,6.539,0,0,0-1.227-1.242c-.321-.264,1.513,1.3,1.438,1.945l-.1-.079s.037-.176-.2-.511" transform="translate(-365.603 -303.847)" fill="#e5a300"/>
      <path id="Tracciato_142" data-name="Tracciato 142" d="M434.144,346.451a1.736,1.736,0,0,0,.366.176c.343.108.6.079.6-.073s-.125-.163-.088-.214.044-.011.311.02c.125.016.291-.051.258-.163s-.15-.124-.1-.218c.079-.15.486.13.572-.185.035-.126-.092-.137-.059-.233.071-.222.6-.24.447-.491-.125-.209-.4.082-.5-.062-.042-.055.031-.114-.106-.192-.291-.165-.247.332-.438.271-.082-.027-.024-.1-.119-.178-.134-.1-.37-.007-.471.4-.039.145-.09.183-.137.176-.1-.011-.073-.092-.161-.146-.187-.121-.594.139-.419.985a7.262,7.262,0,0,1,1.583-.9c.4-.179-1.817.885-2.012,1.471l.009.125a1.642,1.642,0,0,1,.467-.568" transform="translate(-382.837 -304.369)" fill="#e5a300"/>
      <path id="Tracciato_143" data-name="Tracciato 143" d="M416.513,319.467a1.833,1.833,0,0,1-.319.176c-.3.115-.522.1-.524-.022s.1-.15.073-.185-.04-.011-.275.035c-.112.022-.256-.024-.227-.117.033-.113.132-.119.084-.192-.073-.121-.419.141-.5-.114-.033-.1.077-.126.049-.205-.064-.178-.531-.154-.4-.376.106-.185.352.038.442-.09.035-.053-.029-.093.088-.17.251-.161.22.262.388.194.07-.026.017-.086.1-.154.116-.1.321-.033.42.3.035.117.077.147.121.137.082-.02.062-.082.139-.136.159-.114.524.077.381.8a5.951,5.951,0,0,0-1.4-.648c-.346-.121,1.658.617,1.784,1.147l-.106-.038s-.022-.147-.319-.346" transform="translate(-365.871 -280.877)" fill="#e5a300"/>
      <path id="Tracciato_144" data-name="Tracciato 144" d="M436.854,326.719a1.809,1.809,0,0,0,.337.132c.31.068.524.015.513-.125s-.119-.143-.1-.189c.031-.062.038-.018.275-.015.114,0,.247-.077.207-.176-.044-.117-.145-.1-.106-.194.053-.148.432.077.482-.227.02-.114-.093-.117-.073-.207.04-.214.5-.28.344-.5-.134-.18-.344.115-.449-.007-.04-.049.015-.112-.11-.17-.269-.126-.181.33-.357.291-.069-.015-.031-.093-.117-.152-.128-.084-.324.027-.372.414-.02.141-.06.181-.1.18-.083-.006-.072-.079-.15-.123-.174-.1-.508.187-.273.956a6.2,6.2,0,0,1,1.293-.986c.321-.2-1.5.995-1.614,1.557l.024.115a1.579,1.579,0,0,1,.348-.573" transform="translate(-385.322 -286.921)" fill="#e5a300"/>
      <path id="Tracciato_145" data-name="Tracciato 145" d="M159.382,306.184c-.135-.4-.126-.522-.238-.8a3.565,3.565,0,0,1,.3.782,8.953,8.953,0,0,1,.212.945,4.069,4.069,0,0,0-.075-1.79,3.953,3.953,0,0,0-1.061-1.565c.057.786-.209,1.018.042,1.749a11.006,11.006,0,0,0,.947,1.59,2.014,2.014,0,0,1,.165.672,1.912,1.912,0,0,1,0,.322l.059.013a4.017,4.017,0,0,0-.1-1.006c-.137-.5-.183-.726-.245-.92" transform="translate(-139.876 -268.158)" fill="#e5a300"/>
      <path id="Tracciato_146" data-name="Tracciato 146" d="M433.74,310.08a1.4,1.4,0,0,0,.308.035c.267-.015.429-.11.381-.229s-.137-.1-.13-.141.024-.02.22-.073c.088-.022.178-.123.117-.2-.071-.092-.145-.057-.141-.145,0-.137.37-.035.324-.306-.017-.1-.108-.079-.117-.165-.024-.19.33-.352.141-.505-.156-.128-.247.178-.363.1-.046-.035-.02-.1-.137-.121-.251-.044-.053.328-.207.335-.064,0-.048-.075-.137-.1-.126-.044-.251.1-.189.443.024.123.007.167-.031.176-.068.015-.082-.048-.158-.064-.165-.046-.355.275.044.881a5.309,5.309,0,0,1,.771-1.152c.205-.249-.932,1.209-.87,1.717l.051.092a1.352,1.352,0,0,1,.123-.572" transform="translate(-382.625 -272.183)" fill="#e5a300"/>
      <path id="Tracciato_147" data-name="Tracciato 147" d="M214.542,390.98c-.154-.372-.24-.449-.322-.718a2.808,2.808,0,0,0,.266.749,7.14,7.14,0,0,0,.443.8,3.376,3.376,0,0,1-1.114-1.283,3.517,3.517,0,0,1-.143-1.824c.471.579.845.549,1.114,1.227a9.359,9.359,0,0,1,.253,1.764,1.6,1.6,0,0,0,.3.577,1.306,1.306,0,0,0,.212.222l-.044.051a3.057,3.057,0,0,1-.57-.762c-.216-.438-.33-.626-.4-.8" transform="translate(-188.584 -343.145)" fill="#e5a300"/>
      <path id="Tracciato_148" data-name="Tracciato 148" d="M240.33,404.847c-.22-.335-.321-.4-.456-.639a2.9,2.9,0,0,0,.41.68,7.574,7.574,0,0,0,.588.7,3.5,3.5,0,0,1-1.341-1.053,3.587,3.587,0,0,1-.5-1.749c.573.48.934.387,1.33.995a9.707,9.707,0,0,1,.6,1.673,1.666,1.666,0,0,0,.41.509,1.4,1.4,0,0,0,.251.178l-.033.059a3.377,3.377,0,0,1-.705-.639c-.3-.394-.445-.553-.551-.713" transform="translate(-211.012 -355.575)" fill="#e5a300"/>
      <path id="Tracciato_149" data-name="Tracciato 149" d="M280.647,318.414l-.049-.407.128-.015c.169-.022.24.038.256.172s-.04.216-.2.233Zm-.425.879.524-.062-.064-.539.222-.026c.474-.055.59-.337.564-.568s-.22-.454-.656-.4l-.773.1Z" transform="translate(-247.215 -280.454)" fill="#1d1d1b" fill-rule="evenodd"/>
      <path id="Tracciato_150" data-name="Tracciato 150" d="M342.166,323.5l.132-.388.121.044c.163.057.2.145.159.267a.2.2,0,0,1-.29.121Zm-.769.6.5.172.176-.509.209.07c.458.158.681-.038.76-.262s0-.507-.414-.647l-.736-.253Z" transform="translate(-301.382 -284.852)" fill="#1d1d1b" fill-rule="evenodd"/>
      <path id="Tracciato_151" data-name="Tracciato 151" d="M311.763,318.092a2.163,2.163,0,0,1-.432-.224.642.642,0,0,0,.348-.581.775.775,0,0,0-.8-.841.758.758,0,0,0-.883.711.768.768,0,0,0,.513.819c.062.024.343.037.374.048.088.066.236.141.352.238Zm-1.238-.881a.306.306,0,0,1,.332-.319.31.31,0,0,1,.3.357.315.315,0,1,1-.627-.038" transform="translate(-273.66 -279.354)" fill="#1d1d1b" fill-rule="evenodd"/>
      <path id="Tracciato_152" data-name="Tracciato 152" d="M104.775,535.754a2.3,2.3,0,0,0,2.11,1.237,2.328,2.328,0,0,0,2.178-1.235l-1.057,0a1.521,1.521,0,0,1-1.13.432,1.385,1.385,0,0,1-1.046-.432ZM102.8,536.9h.9v-1.145h-.9Zm-2.827,0h.894v-1.145H99.97Zm-2.83,0h.894v-1.145h-.894Zm-3.638,0H94.4v-1.145H93.5Zm-4.638-1.145a2.063,2.063,0,0,0,1.934,1.237,2.935,2.935,0,0,0,1.8-.533v-.7h-.26a2.645,2.645,0,0,1-1.313.381,1.479,1.479,0,0,1-1.07-.379ZM86.907,536.9H87.8v-1.145h-.892Zm-4.429-1.145c0,.044,0,.088,0,.13a1.09,1.09,0,0,0,1.1,1.107,1.944,1.944,0,0,0,1.214-.463c.082.32.289.463.682.463a1.431,1.431,0,0,0,.863-.352v-.544a1.065,1.065,0,0,1-.471.24c-.11,0-.172-.059-.172-.231v-.35H84.8v.231a1.134,1.134,0,0,1-.782.374.615.615,0,0,1-.641-.6ZM78.1,536.9h.982v-1.145H78.1Zm-3.5,0h.89v-1.145H74.6Zm-4.832-1.145A2.022,2.022,0,0,0,71.71,536.9h1.9v-1.145h-.894v.39h-.9a1.315,1.315,0,0,1-1.046-.388Zm-5.97,0a1.046,1.046,0,0,0-.007.13,1.089,1.089,0,0,0,1.1,1.107,1.941,1.941,0,0,0,1.215-.463c.082.32.291.463.681.463a1.452,1.452,0,0,0,.866-.352v-.544a1.091,1.091,0,0,1-.474.24c-.11,0-.172-.059-.172-.231v-.35h-.89v.231a1.146,1.146,0,0,1-.784.374.616.616,0,0,1-.641-.6Zm-3.072,0a1.317,1.317,0,0,0,1.454,1.237,2.688,2.688,0,0,0,1.084-.3v-.835a1.926,1.926,0,0,1-1.015.333.614.614,0,0,1-.606-.432Zm-3.444,0a1.322,1.322,0,0,0,1.458,1.237,2.7,2.7,0,0,0,1.085-.3v-.835a1.931,1.931,0,0,1-1.015.333.61.61,0,0,1-.608-.432Zm-2.24,1.145h.894v-1.145h-.894Zm-6.107-1.145a3.618,3.618,0,0,0,2.867,1.237,4.988,4.988,0,0,0,2.479-.6v-.632H53.45a4.029,4.029,0,0,1-1.555.33,3.1,3.1,0,0,1-1.442-.328Z" transform="translate(-43.202 -472.958)" fill="#fff" fill-rule="evenodd"/>
      <path id="Tracciato_153" data-name="Tracciato 153" d="M87.5,526.47v-.159c-.086.057-.176.108-.26.159Zm-38.309,0v-.441a5.15,5.15,0,0,1-.834.441Zm54.125-1.233v.092a1.61,1.61,0,0,1-.4,1.141h1.057a2.526,2.526,0,0,0,.26-1.152v-.081Zm-3.9,0c0,.027,0,.053,0,.081a2.5,2.5,0,0,0,.266,1.154l1.055,0a1.644,1.644,0,0,1-.409-1.152v-.081Zm-1.715,1.233h.9v-1.233h-.9Zm-2.827,0h.894v-1.233h-.894Zm-2.83,0h.894v-1.233h-.894Zm-3.638-1.233v1.233H89.3v-1.233Zm-4.891,0v.07a2.734,2.734,0,0,0,.253,1.165l1.086,0a1.7,1.7,0,0,1-.445-.973h3.171c0-.088,0-.176-.007-.26Zm-1.7,1.233h.892v-1.233h-.892Zm-3.066-1.233c-.639.231-1.29.507-1.363,1.233h.9v-.029c0-.531.659-.8,1.423-1.053v1.083H80.6v-1.233ZM73.01,526.47h.982v-1.233H73.01Zm-3.5,0h.89v-1.233h-.89Zm-1.89,0h.894v-1.233h-.894Zm-3.188-1.233v.018a2.836,2.836,0,0,0,.246,1.216l.993,0a1.6,1.6,0,0,1-.324-1.083c0-.049,0-.1,0-.15Zm-4.365,0c-.639.231-1.29.507-1.359,1.233h.9v-.029c0-.531.663-.8,1.425-1.053v1.083h.89v-1.233Zm-4.439,0v1.055c0,.06,0,.117.007.178h.918a.846.846,0,0,1-.035-.251v-.982Zm-3.446,0v1.055a1.434,1.434,0,0,0,.009.178h.92a.916.916,0,0,1-.033-.251v-.982Zm-2.231,1.233h.894v-1.233h-.894Zm-6.783-1.233a3.575,3.575,0,0,0,.676,1.233h1.515a2.385,2.385,0,0,1-1.134-1.233Z" transform="translate(-38.111 -463.674)" fill="#fff" fill-rule="evenodd"/>
      <path id="Tracciato_154" data-name="Tracciato 154" d="M101.42,514.692a1.441,1.441,0,0,1,.766,1.233h.914a2.267,2.267,0,0,0-.4-1.236Zm-2.726,0a2.265,2.265,0,0,0-.407,1.233h.91a1.449,1.449,0,0,1,.729-1.233Zm-2.435,0a1.068,1.068,0,0,1,.313.823v.41h.9v-.454a2.342,2.342,0,0,0-.126-.779Zm-2.77,0a1.154,1.154,0,0,1,.257.811v.421h.894v-.894a2.643,2.643,0,0,1,.4-.339Zm-2.574,0v1.233h.894v-.894a2.232,2.232,0,0,1,.357-.339Zm-1.246,0a1.9,1.9,0,0,1,.431.31l.187-.31Zm-2.392,0v1.233h.894a1.424,1.424,0,0,1,.623-1.233h-.518c-.029.044-.059.09-.084.137h-.02v-.137Zm-4.563,0a2.564,2.564,0,0,0-.328,1.233h4.057a3.153,3.153,0,0,0-.286-1.236l-.986,0a1.176,1.176,0,0,1,.4.9H83.3a1.354,1.354,0,0,1,.493-.9Zm-2.032,1.233h.892v-1.233h-.892Zm-2.363-1.233a.739.739,0,0,1,.256.652v.24l-.791.282c-.057.016-.114.038-.169.059h1.852v-.731a1.7,1.7,0,0,0-.068-.5Zm-1.982,0v.6a2.188,2.188,0,0,1,.771-.6Zm-4.461,0v1.233h.982v-.581h1.024a2.423,2.423,0,0,0,1.847-.656Zm-3.5,1.233h.89v-1.233h-.89Zm-1.89,0h.894v-1.233h-.894Zm-2.845-1.233a2.3,2.3,0,0,0-.343,1.233h.916a1.473,1.473,0,0,1,.705-1.233Zm-4,0a.739.739,0,0,1,.258.652v.24l-.793.282c-.055.016-.112.038-.169.059H60.79v-.731a1.844,1.844,0,0,0-.064-.5Zm-1.978,0v.6a2.147,2.147,0,0,1,.768-.6ZM54.5,515.924h.89v-1.233H54.5Zm-3.446,0h.9v-1.233h-.9Zm-2.231,0h.894v-1.233h-.894ZM41.9,514.692c-.006.1-.013.19-.013.288a3.25,3.25,0,0,0,.15.945H43.1a2.771,2.771,0,0,1-.192-1.031c0-.07,0-.136.006-.2Z" transform="translate(-36.979 -454.361)" fill="#fff" fill-rule="evenodd"/>
      <path id="Tracciato_155" data-name="Tracciato 155" d="M72.957,487.356h1.154c.894,0,1.161.542,1.161,1.044a1.053,1.053,0,0,1-1.2,1.074H72.957Zm-23.055.09a.53.53,0,1,0-.531.531.537.537,0,0,0,.531-.531m9.384-.693H58.28l1.125,1.475h.551Zm10.174.693a.531.531,0,1,0-.529.531.536.536,0,0,0,.529-.531m30.564,2.259a1.482,1.482,0,0,1,.725-.18,1.658,1.658,0,0,1,.767.18H102.8a2.421,2.421,0,0,0-2.039-.986,2.374,2.374,0,0,0-1.967.986Zm-7.76,0a1.211,1.211,0,0,1,.766-.231.728.728,0,0,1,.557.231h1.55a1.076,1.076,0,0,1,.6-.231.885.885,0,0,1,.615.231H97.44a1.393,1.393,0,0,0-1.37-.986,2.021,2.021,0,0,0-1.506.813,1.49,1.49,0,0,0-1.343-.813,1.918,1.918,0,0,0-1.313.683v-.593h-.894v.9Zm-3.372,0a.909.909,0,0,1,.469-.132.936.936,0,0,1,.407.128l.617,0,.282-.462a1.565,1.565,0,0,0-1.074-.524c-.394,0-.8.295-1.22.982Zm-1.517,0h.894v-.9h-.894Zm-3.484,0a1.191,1.191,0,0,1,.722-.214,1.026,1.026,0,0,1,.658.214h.986a1.732,1.732,0,0,0-1.663-.986,2,2,0,0,0-1.781.982Zm-3.111,0h.892v-3.233h-.892Zm-3.574,0a1.6,1.6,0,0,1,.654-.141.936.936,0,0,1,.557.141H79.5a1.483,1.483,0,0,0-1.566-.986,1.856,1.856,0,0,0-1.5.613v.372Zm-1.379,0a1.825,1.825,0,0,0,.46-1.266,1.917,1.917,0,0,0-2.176-1.967H71.975V489.7Zm-7.349,0h.89v-.9h-.89Zm-3.457,0a1.475,1.475,0,0,1,.733-.18,2.05,2.05,0,0,1,.834.169v.011h.894v-3.233h-.894V488.9a2.653,2.653,0,0,0-.942-.181,2.192,2.192,0,0,0-1.9.986Zm-6.494,0a1.628,1.628,0,0,1,.654-.141.943.943,0,0,1,.557.141h1.084a1.489,1.489,0,0,0-1.57-.986,1.839,1.839,0,0,0-1.493.613v.372Zm-3.041,0v-.09h1.425v-.806H55.487v-.932l-1.676,1.638v.1H54.6v.09Zm-3.44,0v-.09h1.422v-.806H52.047v-.932l-1.674,1.638v.1h.778v.09Zm-3.127,0h.894v-.9H48.92Zm-5.913,0a2.607,2.607,0,0,1,2.722-2.418,4.5,4.5,0,0,1,2.36.713v-1.053a5.933,5.933,0,0,0-2.347-.562A3.562,3.562,0,0,0,42,489.7Z" transform="translate(-37.076 -429.374)" fill="#fff" fill-rule="evenodd"/>
    </g>
  </g>
</svg>

