<svg id="Raggruppa_65" data-name="Raggruppa 65" xmlns="http://www.w3.org/2000/svg" width="70.095" height="47.598" viewBox="0 0 70.095 47.598">
  <rect id="Rettangolo_28" data-name="Rettangolo 28" width="70.095" height="47.598" fill="#fff"/>
  <rect id="Rettangolo_29" data-name="Rettangolo 29" width="67.399" height="44.933" transform="translate(1.348 1.305)" fill="#034ea2"/>
  <path id="Tracciato_900" data-name="Tracciato 900" d="M138.535,32.525l1.422-1.038,1.422,1.038-.541-1.679,1.445-1.038H140.5l-.545-1.7-.545,1.7-1.78,0,1.444,1.038Z" transform="translate(-104.924 -21.43)" fill="#fff200"/>
  <path id="Tracciato_901" data-name="Tracciato 901" d="M107.563,40.839l1.422-1.038,1.421,1.038-.54-1.679,1.444-1.038h-1.781l-.545-1.7-.545,1.7-1.78,0L108.1,39.16Z" transform="translate(-81.312 -27.766)" fill="#fff200"/>
  <path id="Tracciato_902" data-name="Tracciato 902" d="M86.328,59.133l-.545,1.7-1.78,0,1.444,1.038-.541,1.679,1.422-1.038,1.422,1.038-.541-1.679,1.444-1.038h-1.78Z" transform="translate(-64.04 -45.08)" fill="#fff200"/>
  <path id="Tracciato_903" data-name="Tracciato 903" d="M78.013,93.442l1.421,1.038-.54-1.678,1.444-1.038h-1.78l-.545-1.7-.545,1.7-1.781,0L77.132,92.8l-.541,1.678Z" transform="translate(-57.7 -68.659)" fill="#fff200"/>
  <path id="Tracciato_904" data-name="Tracciato 904" d="M86.873,122.787l-.545-1.7-.545,1.7-1.78,0,1.444,1.038-.541,1.679,1.422-1.04,1.422,1.04-.541-1.679,1.444-1.038Z" transform="translate(-64.04 -92.309)" fill="#fff200"/>
  <path id="Tracciato_905" data-name="Tracciato 905" d="M109.576,145.5l-.545-1.7-.544,1.7-1.781,0,1.444,1.038-.54,1.679,1.422-1.038,1.421,1.038-.54-1.679,1.444-1.038Z" transform="translate(-81.348 -109.623)" fill="#fff200"/>
  <path id="Tracciato_906" data-name="Tracciato 906" d="M140.506,153.717l-.545-1.7-.544,1.7-1.781,0,1.444,1.038-.54,1.679,1.422-1.038,1.421,1.038-.541-1.679,1.444-1.038Z" transform="translate(-104.927 -115.889)" fill="#fff200"/>
  <path id="Tracciato_907" data-name="Tracciato 907" d="M171.439,145.5l-.544-1.7-.546,1.7-1.779,0,1.443,1.038-.54,1.679,1.422-1.038,1.422,1.038-.542-1.679,1.444-1.038Z" transform="translate(-128.509 -109.623)" fill="#fff200"/>
  <path id="Tracciato_908" data-name="Tracciato 908" d="M194.144,122.787l-.546-1.7-.546,1.7-1.779,0,1.444,1.038-.542,1.679,1.422-1.04,1.422,1.04-.542-1.679,1.444-1.038Z" transform="translate(-145.817 -92.309)" fill="#fff200"/>
  <path id="Tracciato_909" data-name="Tracciato 909" d="M204.144,91.678h-1.781l-.546-1.7-.544,1.7-1.781,0,1.444,1.038-.54,1.679,1.42-1.04,1.422,1.04-.54-1.679Z" transform="translate(-152.083 -68.594)" fill="#fff200"/>
  <path id="Tracciato_910" data-name="Tracciato 910" d="M192.175,63.462l1.422-1.038,1.422,1.038-.542-1.679,1.444-1.036h-1.779l-.546-1.7-.546,1.7-1.779,0,1.444,1.036Z" transform="translate(-145.816 -45.014)" fill="#fff200"/>
  <path id="Tracciato_911" data-name="Tracciato 911" d="M170.982,36.43l-.544,1.7-1.781,0,1.443,1.04-.54,1.679,1.424-1.04,1.42,1.04-.54-1.679,1.444-1.04h-1.782Z" transform="translate(-128.575 -27.772)" fill="#fff200"/>
</svg>
